<?xml version="1.0" encoding="utf-8" ?>
<svg baseProfile="full" height="200mm" version="1.1" viewBox="0,0,200,200" width="200mm" xmlns="http://www.w3.org/2000/svg" xmlns:ev="http://www.w3.org/2001/xml-events" xmlns:xlink="http://www.w3.org/1999/xlink"><defs /><rect fill="#1a1a1a" height="200" width="200" x="0" y="0" /><text alignment-baseline="middle" fill="#e1ed5e" style="dominant-baseline: central; font-size:9.0px; font-family:Arial;" text-anchor="middle" x="100.0" y="100.0">2021</text><line stroke="#e1ed5e" stroke-width="0.3" x1="100.0" x2="100.0" y1="15.0" y2="10.0" /><path d="M 100.0 14.0 a86.0,86.0 0 0,1 42.46469731375804,11.215312516191453" fill="none" id="id1" stroke="none" /><text fill="#e1ed5e" style="font-size:6.75px; font-family:Arial;" text-anchor="middle"><textPath startOffset="22.20632615414155" xlink:href="#id1">January</textPath></text><line stroke="#e1ed5e" stroke-width="0.3" x1="143.23703022742887" x2="145.7803849466894" y1="26.81831364943548" y2="22.513508569990506" /><path d="M 143.74570117128098 25.957352633546492 a86.0,86.0 0 0,1 28.547481713284135,27.462654790039103" fill="none" id="id2" stroke="none" /><text fill="#e1ed5e" style="font-size:6.75px; font-family:Arial;" text-anchor="middle"><textPath startOffset="19.985693538727396" xlink:href="#id2">February</textPath></text><line stroke="#e1ed5e" stroke-width="0.3" x1="172.23445277983987" x2="176.4835382374775" y1="55.19839476539836" y2="52.563006222186495" /><path d="M 173.08426987136738 54.67131705675599 a86.0,86.0 0 0,1 12.851231095245387,41.99856678651699" fill="none" id="id3" stroke="none" /><text fill="#e1ed5e" style="font-size:6.75px; font-family:Arial;" text-anchor="middle"><textPath startOffset="22.20632615414155" xlink:href="#id3">March</textPath></text><line stroke="#e1ed5e" stroke-width="0.3" x1="184.98032266829074" x2="189.97916517819016" y1="98.17113171792111" y2="98.06355123074" /><path d="M 185.9800911702706 98.14961562048488 a86.0,86.0 0 0,1 -9.607161424134198,41.387399972396054" fill="none" id="id4" stroke="none" /><text fill="#e1ed5e" style="font-size:6.75px; font-family:Arial;" text-anchor="middle"><textPath startOffset="21.466115282336823" xlink:href="#id4">April</textPath></text><line stroke="#e1ed5e" stroke-width="0.3" x1="174.80103733775053" x2="179.2010983576182" y1="140.37084112569926" y2="142.7455964860345" /><path d="M 175.68104954172406 140.8457921977663 a86.0,86.0 0 0,1 -30.038265399797805,32.042727171017184" fill="none" id="id5" stroke="none" /><text fill="#e1ed5e" style="font-size:6.75px; font-family:Arial;" text-anchor="middle"><textPath startOffset="22.206326154141568" xlink:href="#id5">May</textPath></text><line stroke="#e1ed5e" stroke-width="0.3" x1="143.8653032363475" x2="146.44561519142675" y1="172.8068346515853" y2="177.08958963109032" /><path d="M 144.38136562736335 173.6633856474863 a86.0,86.0 0 0,1 -40.68145358897372,12.25698825130547" fill="none" id="id6" stroke="none" /><text fill="#e1ed5e" style="font-size:6.75px; font-family:Arial;" text-anchor="middle"><textPath startOffset="21.466115282336833" xlink:href="#id6">June</textPath></text><line stroke="#e1ed5e" stroke-width="0.3" x1="102.19456741930631" x2="102.32365962044197" y1="184.97166512339345" y2="189.96999836594603" /><path d="M 102.22038585953345 185.97133177190398 a86.0,86.0 0 0,1 -42.740103519485714,-10.115201625700543" fill="none" id="id7" stroke="none" /><text fill="#e1ed5e" style="font-size:6.75px; font-family:Arial;" text-anchor="middle"><textPath startOffset="22.20632615414155" xlink:href="#id7">July</textPath></text><line stroke="#e1ed5e" stroke-width="0.3" x1="58.666819895761336" x2="56.23545636021788" y1="174.27360380694188" y2="178.64263932499728" /><path d="M 58.180547188652646 175.14741091055294 a86.0,86.0 0 0,1 -31.652253787137756,-30.449443065178592" fill="none" id="id8" stroke="none" /><text fill="#e1ed5e" style="font-size:6.75px; font-family:Arial;" text-anchor="middle"><textPath startOffset="22.20632615414155" xlink:href="#id8">August</textPath></text><line stroke="#e1ed5e" stroke-width="0.3" x1="26.63291911575756" x2="22.317208475507996" y1="142.92168965132927" y2="145.44649492493687" /><path d="M 25.769776987707644 143.4266507060508 a86.0,86.0 0 0,1 -11.730757126820373,-40.83630448921669" fill="none" id="id9" stroke="none" /><text fill="#e1ed5e" style="font-size:6.75px; font-family:Arial;" text-anchor="middle"><textPath startOffset="21.46611528233685" xlink:href="#id9">September</textPath></text><line stroke="#e1ed5e" stroke-width="0.3" x1="15.007084014347285" x2="10.007500721073583" y1="101.09737516637583" y2="101.16192664675087" /><path d="M 14.007167355692545 101.11028546245083 a86.0,86.0 0 0,1 10.666146001902534,-42.60595125391555" fill="none" id="id10" stroke="none" /><text fill="#e1ed5e" style="font-size:6.75px; font-family:Arial;" text-anchor="middle"><textPath startOffset="22.20632615414155" xlink:href="#id10">October</textPath></text><path d="M 79.91906864156998 93.8553929516997 l -60.24279407529007 -18.433821144900918 a84.0,84.0 0 0,0 0.4349780649271846,-1.378999334294342 l 59.91656052659468 19.468070645621676" fill="#4dd2ff" stroke="none" /><path d="M 80.14247586403 93.16781622104843 l -59.3064205046342 -20.40497905906988 a83.7185354059992,83.7185354059992 0 0,0 0.4805719772527659,-1.3586416942120156 l 58.94639544657162 21.422818379708506" fill="#4cd6ff" stroke="none" /><path d="M 80.38941819471856 92.48833698450439 l -19.87324364595485 -7.612273351984315 a42.281271545582406,42.281271545582406 0 0,0 0.2661836579776054,-0.6774083755135069 l 19.739266438095555 7.953230732393585" fill="#ff0000" stroke="none" /><path d="M 80.65960295795068 91.81776055985345 l -45.901818213889996 -19.419439350058497 a70.84066151258031,70.84066151258031 0 0,0 0.4847838657260878,-1.1189480010368602 l 45.56074363832123 20.206686495681957" fill="#35ff63" stroke="none" /><path d="M 80.803312248108 91.48605970444005 l -39.221024317054464 -17.394951862630315 a63.90539708221104,63.90539708221104 0 0,0 0.454634202743777,-1.0017262016986672 l 38.915787797347335 18.06750007317105" fill="#6bff28" stroke="none" /><path d="M 80.95270993114464 91.15688171328213 l -38.37316039069193 -17.81557350906024 a63.30714003364558,63.30714003364558 0 0,0 0.4673930158823605,-0.984448891528279 l 38.060809180967816 18.47346481622905" fill="#75ff27" stroke="none" /><path d="M 81.26839172434947 90.50648371742162 l -40.629549026390094 -20.591786864198422 a66.54977431720613,66.54977431720613 0 0,0 0.5266640341353797,-1.0173472801543677 l 40.2690755590946 21.288106866613123" fill="#43ff2d" stroke="none" /><path d="M 81.6062741919709 89.86733742301443 l -40.09906963713037 -22.08961612914385 a66.78085327400925,66.78085327400925 0 0,0 0.5633198983553382,-1.0020832422507593 l 39.7128920974826 22.776582881329393" fill="#40ff2d" stroke="none" /><line stroke="#e1ed5e" stroke-width="0.3" x1="26.266209847984243" x2="21.928928074336255" y1="57.711370442889674" y2="55.22380399835377" /><path d="M 25.398753493254645 57.213857153982495 a86.0,86.0 0 0,1 29.58750427330803,-30.492523968695096" fill="none" id="id11" stroke="none" /><text fill="#e1ed5e" style="font-size:6.75px; font-family:Arial;" text-anchor="middle"><textPath startOffset="21.46611528233685" xlink:href="#id11">November</textPath></text><path d="M 81.78341655067845 89.55222093294921 l -37.504415410104734 -21.50995258434494 a64.23493073238893,64.23493073238893 0 0,0 0.5583554841079239,-0.9544105159298595 l 37.128600251526485 22.152342512628692" fill="#66ff29" stroke="none" /><path d="M 82.15384107792192 88.93136811851018 l -38.82069876072346 -24.077563460060283 a66.6812402901242,66.6812402901242 0 0,0 0.6133797843878025,-0.9702195154276702 l 38.40049138008969 24.74223062320217" fill="#42ff2d" stroke="none" /><path d="M 82.95767976084542 87.72973835380427 l -37.7803992453885 -27.20142429747285 a67.55401218962871,67.55401218962871 0 0,0 0.6875627656968288,-0.9378348397119052 l 37.30657386717804 27.847721580856255" fill="#35ff2f" stroke="none" /><path d="M 83.39014120810768 87.1503855733568 l -35.53909095826039 -27.49352788658001 a65.93240547522086,65.93240547522086 0 0,0 0.7021673067217555,-0.8916811733302118 l 35.06056957094466 28.101201453863272" fill="#4dff2c" stroke="none" /><path d="M 83.84228863543731 86.58626213691792 l -37.04163611114081 -30.751062796198525 a69.14260762449325,69.14260762449325 0 0,0 0.76810650069612,-0.9091958235623555 l 36.50681899695756 31.384117569389996" fill="#32ff45" stroke="none" /><line stroke="#e1ed5e" stroke-width="0.3" x1="56.762969772571076" x2="54.21961505331055" y1="26.818313649435495" y2="22.513508569990535" /><path d="M 56.25429882871897 25.957352633546506 a86.0,86.0 0 0,1 42.265352541879196,-11.944610805530505" fill="none" id="id12" stroke="none" /><text fill="#e1ed5e" style="font-size:6.75px; font-family:Arial;" text-anchor="middle"><textPath startOffset="22.20632615414155" xlink:href="#id12">December</textPath></text></svg>