<?xml version="1.0" encoding="utf-8" ?>
<svg baseProfile="full" height="200mm" version="1.1" viewBox="0,0,200,200" width="200mm" xmlns="http://www.w3.org/2000/svg" xmlns:ev="http://www.w3.org/2001/xml-events" xmlns:xlink="http://www.w3.org/1999/xlink"><defs /><rect fill="#1a1a1a" height="200" width="200" x="0" y="0" /><text alignment-baseline="middle" fill="#e1ed5e" style="dominant-baseline: central; font-size:9.0px; font-family:Arial;" text-anchor="middle" x="100.0" y="100.0">2023</text><line stroke="#e1ed5e" stroke-width="0.3" x1="100.0" x2="100.0" y1="15.0" y2="10.0" /><path d="M 100.0 14.0 a86.0,86.0 0 0,1 42.46469731375804,11.215312516191453" fill="none" id="id25" stroke="none" /><text fill="#e1ed5e" style="font-size:6.75px; font-family:Arial;" text-anchor="middle"><textPath startOffset="22.20632615414155" xlink:href="#id25">January</textPath></text><line stroke="#e1ed5e" stroke-width="0.3" x1="143.23703022742887" x2="145.7803849466894" y1="26.81831364943548" y2="22.513508569990506" /><path d="M 143.74570117128098 25.957352633546492 a86.0,86.0 0 0,1 28.547481713284135,27.462654790039103" fill="none" id="id26" stroke="none" /><text fill="#e1ed5e" style="font-size:6.75px; font-family:Arial;" text-anchor="middle"><textPath startOffset="19.985693538727396" xlink:href="#id26">February</textPath></text><path d="M 115.4437574822437 85.77008943001954 l 8.959126533596883 -8.254957998712445 a33.182375786582284,33.182375786582284 0 0,0 0.3834245001944127,0.4233869097042442 l -9.099894674407333 8.099518301738652" fill="#ff8a0c" stroke="none" /><path d="M 115.68641384162765 86.03803664274999 l 12.478145222770411 -11.106388504454209 a37.70496853670849,37.70496853670849 0 0,0 0.4273375854894217,0.48852073298550874 l -12.667474671837681 10.889952215265753" fill="#ffc712" stroke="none" /><path d="M 116.15771136456269 86.58626213691792 l 8.062059724521925 -6.692925337088766 a31.478170478170476,31.478170478170476 0 0,0 0.34251473433037255,0.4198825648909756 l -8.176072950928706 6.553158602589689" fill="#ff730a" stroke="none" /><path d="M 116.38621287248628 86.86637796730983 l 3.9346374012177217 -3.1536292653714955 a26.042494325477115,26.042494325477115 0 0,0 0.2773475041451335,0.35220316518430184 l -3.988338985956819 3.0854337062341552" fill="#ff2503" stroke="none" /><path d="M 117.04232023915458 87.72973835380427 l 20.437939695700837 -14.715066027174933 a46.18417255319741,46.18417255319741 0 0,0 0.45895495126915165,0.6491592305622678 l -20.688207266773873 14.361080296280873" fill="#cdff1d" stroke="none" /><path d="M 117.45458315368197 88.32363383020206 l 22.54615950228446 -15.082411980478012 a48.12578956364807,48.12578956364807 0 0,0 0.45468183692782094,0.6925116315688679 l -22.802437974570207 14.692082284931471" fill="#b7ff1f" stroke="none" /><line stroke="#e1ed5e" stroke-width="0.3" x1="172.23445277983987" x2="176.4835382374775" y1="55.19839476539836" y2="52.563006222186495" /><path d="M 173.08426987136738 54.67131705675599 a86.0,86.0 0 0,1 12.851231095245387,41.99856678651699" fill="none" id="id27" stroke="none" /><text fill="#e1ed5e" style="font-size:6.75px; font-family:Arial;" text-anchor="middle"><textPath startOffset="22.20632615414155" xlink:href="#id27">March</textPath></text><path d="M 118.3937258080291 89.86733742301442 l 23.04876869417759 -12.697014103099473 a47.31463291501532,47.31463291501532 0 0,0 0.3868352028552176,0.7167468808052551 l -23.263911996251274 12.29838623896176" fill="#c0ff1e" stroke="none" /><path d="M 120.28053869075195 94.5502522615342 l 24.23187510687764 -6.511543336011639 a46.0915118678025,46.0915118678025 0 0,0 0.19929896891618779,0.7679802264000799 l -24.340370407664132 6.093466684062708" fill="#cfff1d" stroke="none" /><path d="M 120.78858239683441 97.02765380044208 l 29.831375677000416 -4.265282472296843 a51.13475749613417,51.13475749613417 0 0,0 0.11708398702959207,0.8724116997064897 l -29.900375663087843 3.7511524305256896" fill="#94ff23" stroke="none" /><line stroke="#e1ed5e" stroke-width="0.3" x1="184.98032266829074" x2="189.97916517819016" y1="98.17113171792111" y2="98.06355123074" /><path d="M 185.9800911702706 98.14961562048488 a86.0,86.0 0 0,1 -9.607161424134198,41.387399972396054" fill="none" id="id28" stroke="none" /><text fill="#e1ed5e" style="font-size:6.75px; font-family:Arial;" text-anchor="middle"><textPath startOffset="21.466115282336823" xlink:href="#id28">April</textPath></text><path d="M 120.99513854157772 99.54816195383933 l 5.277682234484998 -0.1135814190682339 a26.278904290376566,26.278904290376566 0 0,0 0.005840164727496271,0.45232719423192735 l -5.27885540633021 0.022717966775843833" fill="#ff2904" stroke="none" /><path d="M 118.81262510543309 109.33194174019688 l 33.852450011436616 16.792398163423723 a58.78853010975382,58.78853010975382 0 0,0 -0.4574904662783783,0.902672092099022 l -33.55838087537197 -17.37262446722544" fill="#43ff2d" stroke="none" /><line stroke="#e1ed5e" stroke-width="0.3" x1="174.80103733775053" x2="179.2010983576182" y1="140.37084112569926" y2="142.7455964860345" /><path d="M 175.68104954172406 140.8457921977663 a86.0,86.0 0 0,1 -30.038265399797805,32.042727171017184" fill="none" id="id29" stroke="none" /><text fill="#e1ed5e" style="font-size:6.75px; font-family:Arial;" text-anchor="middle"><textPath startOffset="22.206326154141568" xlink:href="#id29">May</textPath></text><path d="M 114.55890576462653 115.13401014063108 l 8.750344346721246 9.095999535833952 a33.62163752221113,33.62163752221113 0 0,0 -0.4205333031517286,0.3976404864952821 l -8.59247520917871 -9.245274659075156" fill="#ff900d" stroke="none" /><path d="M 114.29624159901734 115.38237550388516 l 8.666637925026105 9.325071767682426 a33.73057643612137,33.73057643612137 0 0,0 -0.42870028797824644,0.391607548682407 l -8.504838087580994 -9.472872082951415" fill="#ff920d" stroke="none" /><path d="M 114.0293411484842 115.62618273729858 l 10.051415639644553 11.19548351496155 a36.045590965285044,36.045590965285044 0 0,0 -0.4652587178638916,0.4105367238113356 l -9.857214568874074 -11.366843380545175" fill="#ffb110" stroke="none" /><path d="M 112.92097659922987 116.55440617244103 l 7.874069221593553 10.088288537876114 a33.79744239017662,33.79744239017662 0 0,0 -0.46169120343513625,0.3540051272711784 l -7.699249289664923 -10.222333006974663" fill="#ff930d" stroke="none" /><path d="M 112.34349029814194 116.9893568818739 l 14.735319693057832 20.281427617887637 a46.06922321645075,46.06922321645075 0 0,0 -0.645567305706246,0.4605951317463499 l -14.384025059502703 -20.532067011478205" fill="#cfff1d" stroke="none" /><path d="M 111.7513745106137 117.40417183066458 l 7.020330169093152 10.397339686565298 a33.5455054996164,33.5455054996164 0 0,0 -0.48133855002819526,0.3190049443697836 l -6.840316920324993 -10.5166426520264" fill="#ff8f0d" stroke="none" /><path d="M 111.1453310114006 117.79835938074945 l 13.315623085053998 21.26417284546959 a46.089257959238836,46.089257959238836 0 0,0 -0.6760214338633788,0.41526757910523604 l -12.94762245125831 -21.490228891403206" fill="#cfff1d" stroke="none" /><line stroke="#e1ed5e" stroke-width="0.3" x1="143.8653032363475" x2="146.44561519142675" y1="172.8068346515853" y2="177.08958963109032" /><path d="M 144.38136562736335 173.6633856474863 a86.0,86.0 0 0,1 -40.68145358897372,12.25698825130547" fill="none" id="id30" stroke="none" /><text fill="#e1ed5e" style="font-size:6.75px; font-family:Arial;" text-anchor="middle"><textPath startOffset="21.466115282336833" xlink:href="#id30">June</textPath></text><path d="M 110.8373102113329 117.98757091392108 l 6.8958435176805395 11.44559598892627 a34.36242213680072,34.36242213680072 0 0,0 -0.5092709427741875,0.3008862496171325 l -6.69780470387797 -11.562600810837152" fill="#ff9b0e" stroke="none" /><path d="M 110.21172684928248 118.3499491758327 l 4.078999584398943 7.329752956251711 a29.38829637108796,29.38829637108796 0 0,0 -0.444151184106033,0.24218663885100877 l -3.9522255884242616 -7.398880246862491" fill="#ff5607" stroke="none" /><path d="M 109.89434966115114 118.52300852407294 l 9.853838218089223 18.44716788463154 a41.914017562201124,41.914017562201124 0 0,0 -0.6393067208017741,0.3344550608218756 l -9.534840594760952 -18.61405236439813" fill="#fffd17" stroke="none" /><path d="M 108.92500713936063 119.00905698771935 l 5.674137956771719 12.085145713864597 a34.350902159697576,34.350902159697576 0 0,0 -0.5373986063677488,0.24669334244626492 l -5.465271354636551 -12.181026126644936" fill="#ff9a0e" stroke="none" /><path d="M 108.59647513512805 119.15986991738527 l 5.3792597872951 11.989323083740937 a34.14078779470749,34.14078779470749 0 0,0 -0.5382528090345023,0.23595421368876696 l -5.1720863036028435 -12.080141850724157" fill="#ff980e" stroke="none" /><path d="M 108.2653958097858 119.30500536409082 l 5.116296532909153 11.949836920713675 a33.99904198948176,33.99904198948176 0 0,0 -0.5399833739636375,0.2257130941107488 l -4.909841699448055 -12.036135057844398" fill="#ff960d" stroke="none" /><path d="M 107.93186726928326 119.44442032107085 l 9.517465076741898 23.331402942147914 a46.19794643886422,46.19794643886422 0 0,0 -0.7389007875695814,0.29402387254826734 l -9.11444321313045 -23.49177365910225" fill="#cdff1d" stroke="none" /><path d="M 107.59598834532513 119.57807347666477 l 4.538696867832354 11.69814074575528 a33.547759408180056,33.547759408180056 0 0,0 -0.540166499175016,0.2042447497779789 l -4.336660147897064 -11.77453374563989" fill="#ff8f0d" stroke="none" /><path d="M 107.2578585660854 119.70592522655815 l 4.351114527681091 11.813779058100414 a33.589581933750196,33.589581933750196 0 0,0 -0.5442798904133351,0.1951594041512663 l -4.147115076638021 -11.88692600329164" fill="#ff900d" stroke="none" /><path d="M 106.91757812671514 119.82793768551818 l 0.8283340789823629 2.374263969267597 a23.514610654190005,23.514610654190005 0 0,0 -0.38332204500599965,0.13004364979196192 l -0.7873423010391363 -2.3881706059576815" fill="#ff0000" stroke="none" /><path d="M 106.57524785965236 119.94407469862006 l 3.9271451511744897 11.911836316918487 a33.542500288198184,33.542500288198184 0 0,0 -0.5499031848336959,0.17606163441352657 l -3.7215206212498533 -11.97767079799172" fill="#ff8f0d" stroke="none" /><path d="M 105.88484417918355 120.15858648285463 l 3.9197984614285657 13.427304763578459 a34.987756546073946,34.987756546073946 0 0,0 -0.5795785714439609,0.16379469354393617 l -3.6880887218799994 -13.492788250460913" fill="#ffa30f" stroke="none" /><path d="M 105.53697534728816 120.25689768951611 l 3.3085432287485106 12.104229743216148 a33.548260276749765,33.548260276749765 0 0,0 -0.5583541711319734,0.14746641139804492 l -3.09969861480504 -12.159387503917777" fill="#ff8f0d" stroke="none" /><path d="M 105.18746579009965 120.34920634021253 l 3.531253668828109 13.852276324165457 a35.29528984787111,35.29528984787111 0 0,0 -0.5900140745300686,0.1450111045483768 l -3.292286309554829 -13.911008687027863" fill="#ffa70f" stroke="none" /><path d="M 104.83641907484287 120.43548508189849 l 3.0202842382212993 12.761709136065681 a34.11424176051327,34.11424176051327 0 0,0 -0.5725991828248336,0.1303217097880448 l -2.8001649060036033 -12.81180757943141" fill="#ff970d" stroke="none" /><path d="M 104.13013068566511 120.58985236759428 l 2.502429408298363 12.475307925732665 a33.72381471043039,33.72381471043039 0 0,0 -0.5701450658279023,0.10926965882261085 l -2.2873167278987565 -12.516534782903744" fill="#ff920d" stroke="none" /><path d="M 103.7750983002368 120.6578951692458 l 2.3916724303663166 13.08758459152797 a34.304321382715266,34.304321382715266 0 0,0 -0.581786635400352,0.10115106394714153 l -2.1660368234939145 -13.126814233996116" fill="#ff9a0e" stroke="none" /><path d="M 103.41894727170886 120.7198165907248 l 3.32426003375258 20.145984341198517 a41.41840811248077,41.41840811248077 0 0,0 -0.7044366649621039,0.11001851959535922 l -2.976987505181959 -20.20022116814098" fill="#fff617" stroke="none" /><path d="M 103.06178313531738 120.77559828337769 l 3.9727002224747046 26.95658715027321 a48.24775106037057,48.24775106037057 0 0,0 -0.8226733425835231,0.1140150290655064 l -3.508098288704351 -27.020976744831323" fill="#b5ff1f" stroke="none" /><path d="M 102.70371172650421 120.8252237178851 l 1.6811155739302222 12.948720671483606 a34.05739317785206,34.05739317785206 0 0,0 -0.5820125930422909,0.07047361969220961 l -1.457975557836551 -12.975739819901168" fill="#ff960d" stroke="none" /><path d="M 102.34483914955558 120.86867818915974 l 1.755951881592402 15.627679510360654 a36.726020917225505,36.726020917225505 0 0,0 -0.6288323799150046,0.0651810473186677 l -1.4866869050717948 -15.655589926135079" fill="#ffba11" stroke="none" /><path d="M 101.62511606390274 120.93702456842531 l 1.034070803198301 13.322350503422236 a34.36242213680072,34.36242213680072 0 0,0 -0.5901128120173704,0.04069763452249922 l -0.8045952304020002 -13.33817648246102" fill="#ff9b0e" stroke="none" /><path d="M 101.26447882468166 120.96189622390904 l 0.8230223415879973 13.643651896400472 a34.668452832888775,34.668452832888775 0 0,0 -0.5959869105865405,0.03080571567224732 l -0.5880473625879771 -13.655797418834922" fill="#ff9f0e" stroke="none" /><line stroke="#e1ed5e" stroke-width="0.3" x1="102.19456741930631" x2="102.32365962044197" y1="184.97166512339345" y2="189.96999836594603" /><path d="M 102.22038585953345 185.97133177190398 a86.0,86.0 0 0,1 -42.740103519485714,-10.115201625700543" fill="none" id="id31" stroke="none" /><text fill="#e1ed5e" style="font-size:6.75px; font-family:Arial;" text-anchor="middle"><textPath startOffset="22.20632615414155" xlink:href="#id31">July</textPath></text><path d="M 100.54218724476979 120.99299961872073 l 0.388524815067862 15.04332935395082 a36.0483457424184,36.0483457424184 0 0,0 -0.6204440601902871,0.010681507163376505 l -0.12952106498490695 -15.047788338393357" fill="#ffb110" stroke="none" /><path d="M 100.18074693466247 120.99922214144158 l 0.10791015121468818 12.537027202732393 a33.53749160250116,33.53749160250116 0 0,0 -0.5773141717542787,0.0 l 0.10791015121467955 -12.537027202732393" fill="#ff8f0d" stroke="none" /><path d="M 99.81925306533755 120.99922214144158 l -0.13025824157669935 15.133433691315366 a36.13399426783748,36.13399426783748 0 0,0 -0.621918194932559,-0.010706885729825396 l 0.3907361264019262 -15.128949328306382" fill="#ffb210" stroke="none" /><path d="M 99.45781275523022 120.99299961872073 l -0.38849248595478036 15.042077599939775 a36.04709357099414,36.04709357099414 0 0,0 -0.6201467280228571,-0.021359107212254234 l 0.6473595656522805 -15.033161694301427" fill="#ffb110" stroke="none" /><path d="M 98.73552117531835 120.96189622390904 l -0.7970856548122803 13.213686501984876 a34.237705862944864,34.237705862944864 0 0,0 -0.5879710342702608,-0.04054992498932992 l 1.0244194498614712 -13.19800823247926" fill="#ff990e" stroke="none" /><path d="M 98.37488393609728 120.93702456842531 l -1.1763798143474395 15.155774791643642 a36.20136109046243,36.20136109046243 0 0,0 -0.6208631382009667,-0.05357068401982004 l 1.437087270289948 -15.13327985534516" fill="#ffb310" stroke="none" /><path d="M 98.01472825383883 120.90594882070398 l -2.374129726151659 25.00082653400589 a46.113299650584544,46.113299650584544 0 0,0 -0.7895637817766136,-0.08184151431266827 l 2.804126104533866 -24.95625565123746" fill="#ceff1d" stroke="none" /><path d="M 97.65516085044442 120.86867818915974 l -1.6806468665891603 14.957477409534135 a36.05160138812146,36.05160138812146 0 0,0 -0.6160919568228218,-0.07460015604406223 l 1.9378662464633714 -14.926331724764724" fill="#ffb110" stroke="none" /><path d="M 97.2962882734958 120.8252237178851 l -1.9733657429419607 15.199765075218385 a36.327329535742535,36.327329535742535 0 0,0 -0.6194180031087415,-0.08584569108116907 l 2.2347123372375335 -15.163544818644612" fill="#ffb510" stroke="none" /><path d="M 96.93821686468263 120.77559828337769 l -3.763297492967026 25.53569390100558 a46.811510436749444,46.811510436749444 0 0,0 -0.7961615570629763,-0.12434406132383372 l 4.20229491363852 -25.46713153233464" fill="#c6ff1e" stroke="none" /><path d="M 96.58105272829116 120.7198165907248 l -0.9001743245006765 5.455318675918424 a26.529088140942825,26.529088140942825 0 0,0 -0.44992200130025856,-0.0782247070585094 l 0.993945297272985 -5.439015390338908" fill="#ff2d04" stroke="none" /><path d="M 96.22490169976321 120.6578951692458 l -4.578910328849443 25.056473246488807 a46.47142067792163,46.47142067792163 0 0,0 -0.7856599684535606,-0.1505736028406056 l 5.009537911874699 -24.973942445299734" fill="#caff1d" stroke="none" /><path d="M 95.86986931433489 120.58985236759428 l -2.7574154741310326 13.74648451816123 a35.02031300310459,35.02031300310459 0 0,0 -0.5900231316149466,-0.1236450839173689 l 2.993630067175366 -13.696983453517321" fill="#ffa30f" stroke="none" /><path d="M 95.51606077576429 120.51570834832081 l -4.360987070028705 19.95315600085034 a41.42416810103235,41.42416810103235 0 0,0 -0.6952945039893728,-0.15824676542341945 l 4.70380172341094 -19.875132501849233" fill="#fff617" stroke="none" /><path d="M 95.16358092515715 120.4354850818985 l -3.4635853239442556 14.634804205763592 a36.03907967387891,36.03907967387891 0 0,0 -0.6024476447806152,-0.14806697360869964 l 3.714986253468081 -14.573015973840864" fill="#ffb110" stroke="none" /><path d="M 94.81253420990036 120.34920634021253 l -4.410076933944457 17.299692978471448 a38.85295929846599,38.85295929846599 0 0,0 -0.6466419333271466,-0.17078401182877415 l 4.707209310083093 -17.221217617339093" fill="#ffd614" stroke="none" /><path d="M 94.46302465271185 120.25689768951611 l -4.583929658782384 16.770201832191923 a38.385398488648974,38.385398488648974 0 0,0 -0.635861130194535,-0.17970070683813233 l 4.871921957081533 -16.688812332015267" fill="#ffd013" stroke="none" /><path d="M 94.11515582081647 120.15858648285463 l -4.290485887096649 14.69709786275169 a36.310550438657515,36.310550438657515 0 0,0 -0.5984757237461464,-0.18031582619349204 l 4.542836585283042 -14.621066667452473" fill="#ffb510" stroke="none" /><path d="M 93.76903079525671 120.05430185196036 l -4.478635283109452 14.414435523761702 a36.094175216546155,36.094175216546155 0 0,0 -0.5917359092192583,-0.18945515172788818 l 4.726092537419651 -14.335207525374107" fill="#ffb210" stroke="none" /><path d="M 92.40401165467489 119.57807347666478 l -4.435882303226932 11.433144143758792 a33.26351649487405,33.26351649487405 0 0,0 -0.5320244822553428,-0.2117035212233701 l 4.632027861524133 -11.355093778129355" fill="#ff8c0c" stroke="none" /><path d="M 92.06813273071674 119.44442032107085 l -5.799186508491526 14.216301932846383 a36.3536251356519,36.3536251356519 0 0,0 -0.5773795968319214,-0.24134471830261578 l 6.04303756482091 -14.114372171523794" fill="#ffb510" stroke="none" /><path d="M 91.7346041902142 119.30500536409082 l -6.0188882824535 14.057968094045759 a36.29226873586338,36.29226873586338 0 0,0 -0.572172373724263,-0.2508235540446342 l 6.259981330835507 -13.952279986706673" fill="#ffb410" stroke="none" /><path d="M 91.40352486487194 119.15986991738527 l -6.164025637114892 13.738413421559903 a36.057862245242745,36.057862245242745 0 0,0 -0.5641029405605665,-0.2589519925093062 l 6.399596573442878 -13.630274358716521" fill="#ffb110" stroke="none" /><path d="M 91.07499286063937 119.00905698771935 l -7.10057521918763 15.12326397946106 a37.70722244527216,37.70722244527216 0 0,0 -0.5851574342767206,-0.2809111284115497 l 7.359845321464593 -14.998798574549948" fill="#ffc712" stroke="none" /><path d="M 90.7491055286396 118.85261126421891 l -22.156429706079216 45.15309925379331 a71.2962200323577,71.2962200323577 0 0,0 -1.0970997571641181,-0.5501085936594469 l 22.930383370926094 -44.76502281922456" fill="#3dffab" stroke="none" /><path d="M 90.10565033884886 118.52300852407294 l -7.292059751145519 13.651315099450718 a36.47683880379865,36.47683880379865 0 0,0 -0.5512817395938322,-0.30060275948807036 l 7.525964302607992 -13.523771688202881" fill="#ffb711" stroke="none" /><line stroke="#e1ed5e" stroke-width="0.3" x1="58.666819895761336" x2="56.23545636021788" y1="174.27360380694188" y2="178.64263932499728" /><path d="M 58.180547188652646 175.14741091055294 a86.0,86.0 0 0,1 -31.652253787137756,-30.449443065178592" fill="none" id="id32" stroke="none" /><text fill="#e1ed5e" style="font-size:6.75px; font-family:Arial;" text-anchor="middle"><textPath startOffset="22.20632615414155" xlink:href="#id32">August</textPath></text><path d="M 89.7882731507175 118.34994917583269 l -12.187921672064938 21.901069872147588 a46.06396409646888,46.06396409646888 0 0,0 -0.6895363768677253,-0.3915367505794942 l 12.563106815853871 -21.688029955773462" fill="#cfff1d" stroke="none" /><path d="M 89.4739219176387 118.17145234162733 l -7.703536122201157 13.298822069461657 a36.368901627027824,36.368901627027824 0 0,0 -0.539008127701867,-0.3184555026326692 l 7.931312120931406 -13.16424799453524" fill="#ffb510" stroke="none" /><path d="M 89.1626897886671 117.98757091392108 l -7.761103415179859 12.881738672095521 a36.03907967387891,36.03907967387891 0 0,0 -0.5286088645167358,-0.32471473900899345 l 7.981691479628903 -12.74623546625815" fill="#ffb110" stroke="none" /><path d="M 88.8546689885994 117.79835938074946 l -8.005349993639658 12.784016554531544 a36.083656976582404,36.083656976582404 0 0,0 -0.5235879490219594,-0.33417860177221675 l 8.224219744708542 -12.644323523935523" fill="#ffb210" stroke="none" /><path d="M 88.54995079064634 117.60387380957326 l -13.67175829219563 21.01963959545151 a46.074732770717475,46.074732770717475 0 0,0 -0.6611182253624857,-0.43815311009528385 l 14.031551216298078 -20.781188464264908" fill="#cfff1d" stroke="none" /><path d="M 88.24862548938628 117.40417183066458 l -14.02132097171591 20.76603713584652 a46.05645106792335,46.05645106792335 0 0,0 -0.6532188985373192,-0.4492899147818868 l 14.37669675487612 -20.52160643169953" fill="#cfff1d" stroke="none" /><path d="M 87.95078237400918 117.19931262002967 l -8.770974792284393 12.519878229230192 a36.28650874731181,36.28650874731181 0 0,0 -0.5084822805764849,-0.3627886061494307 l 8.985184400709766 -12.367045361236542" fill="#ffb410" stroke="none" /><path d="M 87.65650970185807 116.9893568818739 l -12.967575927197347 17.848337058531648 a43.06175788967376,43.06175788967376 0 0,0 -0.5959235258541029,-0.44084997790746266 l 13.272884423470014 -17.62247713188442" fill="#f3ff19" stroke="none" /><path d="M 87.36589467227662 116.77436683061367 l -9.240425019767706 12.26855997569042 a36.35913468991863,36.35913468991863 0 0,0 -0.4966852952082635,-0.3808371046181868 l 9.450239043469455 -12.107683529244866" fill="#ffb510" stroke="none" /><path d="M 87.07902340077011 116.55440617244103 l -9.43267297056948 12.085177807374103 a36.330585181445606,36.330585181445606 0 0,0 -0.48967142480009335,-0.3890245948407083 l 9.639301888086932 -11.921019298528265" fill="#ffb510" stroke="none" /><path d="M 86.79598089348748 116.32954008644616 l -9.662606525427444 11.949840372368145 a36.36764945560357,36.36764945560357 0 0,0 -0.4833951103654497,-0.3978012664591969 l 9.866871764337583 -11.781743987051767" fill="#ffb510" stroke="none" /><path d="M 86.51685102203217 116.09983520530335 l -6.647966447697953 7.938142968917527 a31.354205507169176,31.354205507169176 0 0,0 -0.4107916375961914,-0.3500855454937326 l 6.783623561871201 -7.822533033200843" fill="#ff710a" stroke="none" /><path d="M 86.24171649860922 115.8653595955263 l -16.415400985406986 18.929413651921905 a46.05569976506879,46.05569976506879 0 0,0 -0.5944642673123889,-0.5245455987279947 l 16.738807605625965 -18.644044911421624" fill="#cfff1d" stroke="none" /><path d="M 85.97065885151581 115.62618273729859 l -10.270586625495175 11.43960088578947 a36.373659878439994,36.373659878439994 0 0,0 -0.46229267662357276,-0.42229339924206266 l 10.465978851585604 -11.261114719960831" fill="#ffb510" stroke="none" /><path d="M 85.70375840098266 115.38237550388516 l -10.449441418396644 11.243320881949556 a36.349367752809435,36.349367752809435 0 0,0 -0.45465125481966834,-0.4299011393324888 l 10.641428507607129 -11.061785105871136" fill="#ffb510" stroke="none" /><path d="M 85.18274418774928 114.88116024355367 l -17.677654177711197 17.75389504520453 a46.05394672507484,46.05394672507484 0 0,0 -0.5569443582869418,-0.5641816945111209 l 17.980639161053674 -17.446972856712744" fill="#cfff1d" stroke="none" /><path d="M 84.9287848128048 114.62390073753433 l -11.092991433800126 10.763750871796946 a36.45680406101056,36.45680406101056 0 0,0 -0.43313017956586436,-0.45413526164317003 l 11.276628164744949 -10.571208493571275" fill="#ffb610" stroke="none" /><path d="M 84.67929136418377 114.36230785411682 l -38.57969820776166 36.16631030260904 a73.88095228630601,73.88095228630601 0 0,0 -0.8617811734869913,-0.9352932599712485 l 39.196525789244376 -35.49686578783645" fill="#40ffc7" stroke="none" /><path d="M 83.95833913139862 113.55231037782056 l -19.147224588074266 16.175951643468686 a46.06546670217798,46.06546670217798 0 0,0 -0.5065095489668572,-0.610123380905318 l 19.42283013693466 -15.843967005449606" fill="#cfff1d" stroke="none" /><path d="M 83.72743513129214 113.27417163493432 l -11.85516861057745 9.670727642973407 a36.29928089583922,36.29928089583922 0 0,0 -0.3907912959923061,-0.48757222865907907 l 12.019877818624616 -9.465227580736068" fill="#ffb410" stroke="none" /><path d="M 83.50135304334701 112.99209946851258 l -19.69287703570606 15.507442394596458 a46.06571713646284,46.06571713646284 0 0,0 -0.4852105995498277,-0.6272001069651888 l 19.956894452473957 -15.166164293518015" fill="#cfff1d" stroke="none" /><path d="M 83.28015986056508 112.70617746262583 l -12.222698098059261 9.288591865166545 a36.351621661373095,36.351621661373095 0 0,0 -0.3743156486492774,-0.5014569811547732 l 12.380775013403625 -9.076822004502462" fill="#ffb510" stroke="none" /><path d="M 83.06392112726016 112.41649034213515 l -47.934200265189595 35.14240451540918 a80.43632012656869,80.43632012656869 0 0,0 -0.8090369636988544,-1.1236815822052144 l 48.53201702126406 -34.31208932775283" fill="#48f4ff" stroke="none" /><path d="M 82.85270091963577 112.12312394758628 l -12.61268461551721 8.91715588496529 a36.446536255331665,36.446536255331665 0 0,0 -0.3577645676550699,-0.5153865430494561 l 12.764310090334414 -8.69872807972882" fill="#ffb610" stroke="none" /><path d="M 82.6465618267979 111.8261652097733 l -20.718955127580063 14.119725662838412 a46.072729296438666,46.072729296438666 0 0,0 -0.4409750244683922,-0.6591978293032306 l 20.958933257459183 -13.76099091932936" fill="#cfff1d" stroke="none" /><path d="M 82.24976979558568 111.22182372390057 l -12.933819548819814 8.176854124263686 a36.30178523868773,36.30178523868773 0 0,0 -0.32937017767380217,-0.5310496001578652 l 13.072654366161572 -7.953008192740557" fill="#ffb410" stroke="none" /><path d="M 82.05923443525364 110.91462005526583 l -21.44500687523072 13.046494659383052 a46.10177967348139,46.10177967348139 0 0,0 -0.4066157742797751,-0.6815114261885431 l 21.66640352520873 -12.675421139308398" fill="#ceff1d" stroke="none" /><line stroke="#e1ed5e" stroke-width="0.3" x1="26.63291911575756" x2="22.317208475507996" y1="142.92168965132927" y2="145.44649492493687" /><path d="M 25.769776987707644 143.4266507060508 a86.0,86.0 0 0,1 -11.730757126820373,-40.83630448921669" fill="none" id="id33" stroke="none" /><text fill="#e1ed5e" style="font-size:6.75px; font-family:Arial;" text-anchor="middle"><textPath startOffset="21.46611528233685" xlink:href="#id33">September</textPath></text><path d="M 81.87401531095188 110.60418214915194 l -13.444311091695178 7.865278832125403 a36.576010780599695,36.576010780599695 0 0,0 -0.31324392988571365,-0.5461671951651752 l 13.57770701773327 -7.632691791101921" fill="#ffb811" stroke="none" /><path d="M 81.69416730710424 110.29060199501025 l -52.42576311340964 29.471080148905635 a81.14154307270942,81.14154307270942 0 0,0 -0.673952346923162,-1.2234192723577495 l 52.92529186978432 -28.564290358150064" fill="#49edff" stroke="none" /><path d="M 81.35079622478065 109.6543875284942 l -30.30155526805714 15.68661916079404 a55.121170442394146,55.121170442394146 0 0,0 -0.4289511903159033,-0.8463613931032591 l 30.56708512815931 -15.162703555988095" fill="#69ff28" stroke="none" /><path d="M 81.18737489456691 109.33194174019688 l -13.621790468311085 6.757045034121083 a36.205618473304895,36.205618473304895 0 0,0 -0.2721399508695785,-0.5606889039821932 l 13.736083675795383 -6.5215671741736045" fill="#ffb310" stroke="none" /><path d="M 81.02952815118164 109.00673069616217 l -35.07715753301505 16.653803553463078 a59.82983586616474,59.82983586616474 0 0,0 -0.43369617567320035,-0.9341429789769958 l 35.35862832552807 -16.047540507207255" fill="#38ff2e" stroke="none" /><path d="M 80.45479744820244 107.68017299344265 l -50.26178940458618 19.75007608973092 a75.00289788243899,75.00289788243899 0 0,0 -0.4618239877744402,-1.2056767021109833 l 50.594307671954134 -18.88197582078678" fill="#42ffd3" stroke="none" /><path d="M 80.20201598880116 107.00284435728193 l -15.800264975343527 5.588791079109659 a37.759563210806036,37.759563210806036 0 0,0 -0.21147004062712088,-0.6146309249942218 l 15.894125846913877 -5.315987451026141" fill="#ffc812" stroke="none" /><path d="M 79.97269907076064 106.31721596034903 l -34.31286321798468 10.823314031770462 a56.979392835989394,56.979392835989394 0 0,0 -0.2869949657573177,-0.9379161535125053 l 34.49408495624812 -10.231070905705907" fill="#55ff2b" stroke="none" /><path d="M 79.76711848015287 105.62410040840567 l -56.88922027891965 15.813401896843105 a80.04614351077066,80.04614351077066 0 0,0 -0.35758489067465465,-1.330706403044859 l 57.15299324593608 -14.831804560622707" fill="#48f8ff" stroke="none" /><path d="M 79.67330655649465 105.27499134158121 l -24.26472112784732 6.2969510614710344 a46.0684719135962,46.0684719135962 0 0,0 -0.19258526674902954,-0.7692824086476833 l 24.369517708891408 -5.878340813425959" fill="#cfff1d" stroke="none" /><path d="M 79.50377843672027 104.57218783832718 l -37.09978809529963 8.276022944528574 a59.01166705755615,59.01166705755615 0 0,0 -0.21262735782777328,-0.9933242284790721 l 37.236749491851846 -7.636184896633337" fill="#40ff2d" stroke="none" /><path d="M 79.35854240842038 103.8639653848113 l -38.01499688237637 7.116194745720509 a59.6753179124116,59.6753179124116 0 0,0 -0.1803148202896407,-1.0113012709076987 l 38.131858145005204 -6.460774724079597" fill="#3aff2e" stroke="none" /><path d="M 79.23777060512086 103.15116336523772 l -59.60618395195264 9.046659664464572 a81.28879843220187,81.28879843220187 0 0,0 -0.19805802445257178,-1.3852173617255217 l 59.75307602742181 -8.01929683075865" fill="#4aecff" stroke="none" /><path d="M 79.18660465613746 102.79330883721812 l -24.851423882052007 3.33524159803457 a46.07423190214777,46.07423190214777 0 0,0 -0.09872718562892246,-0.7869528080069088 l 24.90515257692778 -2.906971035740253" fill="#cfff1d" stroke="none" /><path d="M 79.07016306316243 101.71520430193888 l -37.698716161749616 3.0894172913692945 a58.825093515342076,58.825093515342076 0 0,0 -0.07401720988417279,-1.0099060219224296 l 37.74630993029812 -2.440038132950104" fill="#42ff2d" stroke="none" /><path d="M 79.0235259727143 100.99374915477108 l -25.053646242747284 1.1869029916695362 a46.081744930693304,46.081744930693304 0 0,0 -0.030716483024985378,-0.7926559412506587 l 25.07036485862347 -0.7554698034048807" fill="#cfff1d" stroke="none" /><path d="M 79.0095281055655 100.63252640178507 l -58.191042077868495 1.7535275360530287 a79.21745646219833,79.21745646219833 0 0,0 -0.029340400505529985,-1.3633331206019308 l 58.21260454105903 -0.7516045996609689" fill="#47fffe" stroke="none" /><line stroke="#e1ed5e" stroke-width="0.3" x1="15.007084014347285" x2="10.007500721073583" y1="101.09737516637583" y2="101.16192664675087" /><path d="M 14.007167355692545 101.11028546245083 a86.0,86.0 0 0,1 10.666146001902534,-42.60595125391555" fill="none" id="id34" stroke="none" /><text fill="#e1ed5e" style="font-size:6.75px; font-family:Arial;" text-anchor="middle"><textPath startOffset="22.20632615414155" xlink:href="#id34">October</textPath></text><path d="M 79.00175016825051 100.2711162175752 l -20.704681840199616 0.2673258519919827 a41.70640754005955,41.70640754005955 0 0,0 -0.003089655774055362,-0.7179271916145854 l 20.706215793263176 0.0891108178262781" fill="#fffa17" stroke="none" /><path d="M 79.01574976396665 99.18683210126434 l -30.40119143027209 -1.1780870260479592 a51.42400909513721,51.42400909513721 0 0,0 0.04188948789454941,-0.8842208827224481 l 30.37640833414404 1.7012190153934164" fill="#91ff24" stroke="none" /><path d="M 79.03285615573316 98.82574320788736 l -25.295545533388328 -1.4166672567993985 a46.33518442696263,46.33518442696263 0 0,0 0.051452815073251744,-0.7959522756281797 l 25.26741212731066 1.85187859668059" fill="#ccff1d" stroke="none" /><path d="M 79.05617556472873 98.46500227214037 l -52.98501268904941 -3.8833344091318183 a74.12712918831465,74.12712918831465 0 0,0 0.10422103582208642,-1.2717606192328972 l 52.91031716940783 4.794808945572494" fill="#40ffca" stroke="none" /><path d="M 79.16333360222342 97.38593545837743 l -12.428547241258748 -1.559223727396347 a33.525971625398014,33.525971625398014 0 0,0 0.07676489767727016,-0.5719876522781326 l 12.399866344523643 1.7729297217391389" fill="#ff8f0d" stroke="none" /><path d="M 79.21141760316559 97.0276538004421 l -19.055091808240718 -2.7244921581125148 a40.24888000222608,40.24888000222608 0 0,0 0.10396497789473759,-0.6849993065723703 l 19.005370936906676 3.052090577076977" fill="#ffe815" stroke="none" /><path d="M 79.26566170972629 96.67025291283419 l -12.383830665778891 -1.9887311333525832 a33.542500288198184,33.542500288198184 0 0,0 0.09645567392198434,-0.5692868475302033 l 12.347763130336684 2.2016037691986146" fill="#ff8f0d" stroke="none" /><path d="M 79.3925641242962 95.95851677861259 l -12.320078572613413 -2.4161856495739866 a33.554771568155886,33.554771568155886 0 0,0 0.11603672079480962,-0.5658362601981011 l 12.276662555903608 2.62789756593549" fill="#ff900d" stroke="none" /><path d="M 79.54389044137918 95.25157060432595 l -52.062682512994954 -12.085190067735342 a74.44693377006953,74.44693377006953 0 0,0 0.3005075288027323,-1.2457977135465341 l 51.846942183931404 12.979573012941273" fill="#41ffcd" stroke="none" /><path d="M 79.71946130924805 94.55025226153421 l -32.827138295788174 -8.821246092903566 a54.99169591712613,54.99169591712613 0 0,0 0.2535201749414121,-0.9120469568456055 l 32.6704313502804 9.385004353168114" fill="#6aff28" stroke="none" /><path d="M 79.81627453868168 94.20196356495316 l -24.10536788527699 -6.924578990479161 a46.0802423249842,46.0802423249842 0 0,0 0.22556081765104294,-0.7604789448303739 l 23.982601170514243 7.338487322056075" fill="#cfff1d" stroke="none" /><path d="M 80.02781315780177 93.51064311812611 l -11.998174360010042 -3.8984431684039054 a33.615627099374706,33.615627099374706 0 0,0 0.18354565594158329,-0.5487781491332824 l 11.929291410296686 4.10439442045951" fill="#ff900d" stroke="none" /><path d="M 80.14247586403 93.16781622104843 l -44.237956720093386 -15.220520355279413 a67.78312788446632,67.78312788446632 0 0,0 0.3890974875974813,-1.100030993869271 l 43.969406151686094 15.979748975575296" fill="#38ff84" stroke="none" /><path d="M 80.38941819471856 92.48833698450439 l -21.531703663461514 -8.247532055671929 a44.05723417195692,44.05723417195692 0 0,0 0.27736431104311793,-0.7058619180331087 l 21.386545802536705 8.616942978600802" fill="#e7ff1a" stroke="none" /><path d="M 80.65960295795068 91.81776055985345 l -34.01473676535123 -14.390434700102142 a57.93354746127213,57.93354746127213 0 0,0 0.396456618188323,-0.9150765357160388 l 33.76198943732023 14.973810380404782" fill="#4bff2c" stroke="none" /><path d="M 80.95270993114464 91.15688171328213 l -16.307362950313806 -7.571047586966876 a38.97917817803095,38.97917817803095 0 0,0 0.28778105653743347,-0.6061402983873841 l 16.17462369993462 7.850630300994792" fill="#ffd714" stroke="none" /><path d="M 81.26839172434947 90.50648371742162 l -47.195182182253326 -23.919367942842314 a73.91050353191845,73.91050353191845 0 0,0 0.5849156417805201,-1.1298708450104589 l 46.776457107312694 24.72821151011311" fill="#40ffc8" stroke="none" /><path d="M 81.6062741919709 89.86733742301443 l -21.95046665706402 -12.091985841515276 a46.060708450765816,46.060708450765816 0 0,0 0.38853821612906325,-0.6911661322344061 l 21.739070799642523 12.468035483684467" fill="#cfff1d" stroke="none" /><line stroke="#e1ed5e" stroke-width="0.3" x1="26.266209847984243" x2="21.928928074336255" y1="57.711370442889674" y2="55.22380399835377" /><path d="M 25.398753493254645 57.213857153982495 a86.0,86.0 0 0,1 29.58750427330803,-30.492523968695096" fill="none" id="id35" stroke="none" /><text fill="#e1ed5e" style="font-size:6.75px; font-family:Arial;" text-anchor="middle"><textPath startOffset="21.46611528233685" xlink:href="#id35">November</textPath></text><path d="M 81.78341655067845 89.55222093294921 l -31.458641962008546 -18.042512850056934 a57.26538878928936,57.26538878928936 0 0,0 0.4977734624371563,-0.8508562029436629 l 31.143408825101066 18.581348465354488" fill="#52ff2b" stroke="none" /><path d="M 82.15384107792192 88.93136811851018 l -19.15410020138527 -11.879849612233324 a43.53908563659998,43.53908563659998 0 0,0 0.4005023728416618,-0.633498572982635 l 18.946770232297645 12.207795832930174" fill="#edff19" stroke="none" /><path d="M 82.34701348167596 88.62581576622439 l -51.369536052151616 -33.0984542731199 a82.10922114937412,82.10922114937412 0 0,0 0.7757497973417352,-1.1815201624858935 l 50.79218961945196 33.97779249958346" fill="#4be4ff" stroke="none" /><path d="M 82.7489923806493 88.02491185347247 l -30.005532967457924 -20.82886461459752 a57.52634131410422,57.52634131410422 0 0,0 0.5716676886242064,-0.8085834042282046 l 29.64255265902984 21.342274519157513" fill="#4fff2b" stroke="none" /><path d="M 82.95767976084542 87.72973835380427 l -21.561028484293374 -15.52367618673986 a47.568072411284646,47.568072411284646 0 0,0 0.4841464535690615,-0.6603752185734777 l 21.290619418210678 15.892513848984837" fill="#bdff1f" stroke="none" /><path d="M 83.39014120810768 87.1503855733568 l -30.540554749033056 -23.6265917620214 a59.61270934119882,59.61270934119882 0 0,0 0.6348637708998467,-0.8062125176174604 l 30.12933689753924 24.148796673591907" fill="#3aff2e" stroke="none" /><path d="M 83.84228863543731 86.58626213691792 l -44.818616294087626 -37.207322051406244 a79.25026335351384,79.25026335351384 0 0,0 0.8803926342250041,-1.0421071887908808 l 44.1715130463755 37.973288189826235" fill="#47ffff" stroke="none" /><path d="M 84.5562425177563 85.77008943001954 l -25.862030344346646 -23.829329059414103 a56.16648314736269,56.16648314736269 0 0,0 0.6612471449535111,-0.7053723501125301 l 25.44801587742268 24.27097082640468" fill="#5eff2a" stroke="none" /><path d="M 84.80347519578584 85.50635884689758 l -31.808298206644785 -30.33707152375623 a64.95572480849728,64.95572480849728 0 0,0 0.7786512957792706,-0.8024686056817754 l 31.2813826471624 30.880104324988128" fill="#35ff63" stroke="none" /><path d="M 85.05521093208273 85.24692304244772 l -31.727118913531392 -31.320122675908234 a65.5820609549099,65.5820609549099 0 0,0 0.7999893413282375,-0.7965539328607987 l 31.18329377203584 31.861612459419142" fill="#36ff6a" stroke="none" /><path d="M 85.57189188830299 84.74124197986013 l -43.28432433509105 -45.776274060419595 a84.0,84.0 0 0,0 1.0591684648205755,-0.98438165570141 l 42.48994798647562 46.514560302195655" fill="#4dd2ff" stroke="none" /><path d="M 85.83668400450813 84.49514656593479 l -27.724377322356894 -30.350407141285885 a62.10703481831589,62.10703481831589 0 0,0 0.7955290456724481,-0.7142338319535335 l 27.197837289088476 30.823139982008698" fill="#31ff41" stroke="none" /><path d="M 86.37877921826538 84.01681056812374 l -26.323090515608175 -30.88760903924006 a61.58262542583766,61.58262542583766 0 0,0 0.8127219281448174,-0.6806312421898716 l 25.787511050504246 31.336141438823745" fill="#30ff3a" stroke="none" /><path d="M 86.65592168130627 83.78471172551755 l -25.74486312943386 -31.284317077639137 a61.515509037497566,61.515509037497566 0 0,0 0.8234190726673963,-0.6658142918055352 l 25.202540658201965 31.722837466708807" fill="#30ff39" stroke="none" /><line stroke="#e1ed5e" stroke-width="0.3" x1="56.762969772571076" x2="54.21961505331055" y1="26.818313649435495" y2="22.513508569990535" /><path d="M 56.25429882871897 25.957352633546506 a86.0,86.0 0 0,1 42.265352541879196,-11.944610805530505" fill="none" id="id36" stroke="none" /><text fill="#e1ed5e" style="font-size:6.75px; font-family:Arial;" text-anchor="middle"><textPath startOffset="22.20632615414155" xlink:href="#id36">December</textPath></text></svg>