<?xml version="1.0" encoding="utf-8" ?>
<svg baseProfile="full" height="200mm" version="1.1" viewBox="0,0,200,200" width="200mm" xmlns="http://www.w3.org/2000/svg" xmlns:ev="http://www.w3.org/2001/xml-events" xmlns:xlink="http://www.w3.org/1999/xlink"><defs /><rect fill="#1a1a1a" height="200" width="200" x="0" y="0" /><text alignment-baseline="middle" fill="#e1ed5e" style="dominant-baseline: central; font-size:9.0px; font-family:Arial;" text-anchor="middle" x="100.0" y="100.0">2022</text><line stroke="#e1ed5e" stroke-width="0.3" x1="100.0" x2="100.0" y1="15.0" y2="10.0" /><path d="M 100.0 14.0 a86.0,86.0 0 0,1 42.46469731375804,11.215312516191453" fill="none" id="id13" stroke="none" /><text fill="#e1ed5e" style="font-size:6.75px; font-family:Arial;" text-anchor="middle"><textPath startOffset="22.20632615414155" xlink:href="#id13">January</textPath></text><line stroke="#e1ed5e" stroke-width="0.3" x1="143.23703022742887" x2="145.7803849466894" y1="26.81831364943548" y2="22.513508569990506" /><path d="M 143.74570117128098 25.957352633546492 a86.0,86.0 0 0,1 28.547481713284135,27.462654790039103" fill="none" id="id14" stroke="none" /><text fill="#e1ed5e" style="font-size:6.75px; font-family:Arial;" text-anchor="middle"><textPath startOffset="19.985693538727396" xlink:href="#id14">February</textPath></text><line stroke="#e1ed5e" stroke-width="0.3" x1="172.23445277983987" x2="176.4835382374775" y1="55.19839476539836" y2="52.563006222186495" /><path d="M 173.08426987136738 54.67131705675599 a86.0,86.0 0 0,1 12.851231095245387,41.99856678651699" fill="none" id="id15" stroke="none" /><text fill="#e1ed5e" style="font-size:6.75px; font-family:Arial;" text-anchor="middle"><textPath startOffset="22.20632615414155" xlink:href="#id15">March</textPath></text><line stroke="#e1ed5e" stroke-width="0.3" x1="184.98032266829074" x2="189.97916517819016" y1="98.17113171792111" y2="98.06355123074" /><path d="M 185.9800911702706 98.14961562048488 a86.0,86.0 0 0,1 -9.607161424134198,41.387399972396054" fill="none" id="id16" stroke="none" /><text fill="#e1ed5e" style="font-size:6.75px; font-family:Arial;" text-anchor="middle"><textPath startOffset="21.466115282336823" xlink:href="#id16">April</textPath></text><line stroke="#e1ed5e" stroke-width="0.3" x1="174.80103733775053" x2="179.2010983576182" y1="140.37084112569926" y2="142.7455964860345" /><path d="M 175.68104954172406 140.8457921977663 a86.0,86.0 0 0,1 -30.038265399797805,32.042727171017184" fill="none" id="id17" stroke="none" /><text fill="#e1ed5e" style="font-size:6.75px; font-family:Arial;" text-anchor="middle"><textPath startOffset="22.206326154141568" xlink:href="#id17">May</textPath></text><path d="M 113.75828350139079 115.86535959552629 l 28.30976520177255 32.64539540456739 a64.21070060644749,64.21070060644749 0 0,0 -0.8412657385718492,0.7169449132813606 l -27.743633986623653 -33.1278647080717" fill="#ff0000" stroke="none" /><path d="M 113.48314897796784 116.09983520530334 l 32.005802409558505 38.21719579375708 a70.84902649218002,70.84902649218002 0 0,0 -0.94171807892838,0.7749698671176586 l -31.343214202085438 -38.76246077973192" fill="#eaff1a" stroke="none" /><path d="M 113.20401910651253 116.32954008644616 l 31.458586057508604 38.90514228623254 a71.03251675710182,71.03251675710182 0 0,0 -0.9573915067393748,0.7606097153111803 l -30.78423705805188 -39.44088591554885" fill="#e3ff1b" stroke="none" /><path d="M 112.92097659922987 116.55440617244103 l 30.67752455581598 39.30416543686647 a70.85908075327163,70.85908075327163 0 0,0 -0.967973075879678,0.7422004780950983 l -29.996422751442807 -39.82640525678894" fill="#eaff1a" stroke="none" /><path d="M 112.34349029814194 116.9893568818739 l 29.61521660863252 40.761848710959406 a71.38441589530801,71.38441589530801 0 0,0 -1.0003087054980402,0.713693701529459 l -28.909180575285593 -41.265586674333086" fill="#d6ff1c" stroke="none" /><path d="M 112.04921762599082 117.19931262002967 l 29.090899545227526 41.52497624384998 a71.70112511969359,71.70112511969359 0 0,0 -1.016937451509237,0.6994588520788119 l -28.371805209095406 -42.01957588529388" fill="#cbff1d" stroke="none" /><path d="M 111.7513745106137 117.40417183066458 l 28.42525464630455 42.09873625828685 a71.79664060006384,71.79664060006384 0 0,0 -1.030197350393941,0.6827586288965781 l -27.696382597170643 -42.58179290827474" fill="#c7ff1e" stroke="none" /><path d="M 111.1453310114006 117.79835938074945 l 29.7007241028355 47.430099735039 a76.96201723587616,76.96201723587616 0 0,0 -1.1288524820865724,0.6934333941514722 l -28.879892420816617 -47.934321596018854" fill="#32ff45" stroke="none" /><line stroke="#e1ed5e" stroke-width="0.3" x1="143.8653032363475" x2="146.44561519142675" y1="172.8068346515853" y2="177.08958963109032" /><path d="M 144.38136562736335 173.6633856474863 a86.0,86.0 0 0,1 -40.68145358897372,12.25698825130547" fill="none" id="id18" stroke="none" /><text fill="#e1ed5e" style="font-size:6.75px; font-family:Arial;" text-anchor="middle"><textPath startOffset="21.466115282336833" xlink:href="#id18">June</textPath></text><path d="M 110.8373102113329 117.98757091392108 l 30.03306455350194 49.848335784792695 a79.19657676348548,79.19657676348548 0 0,0 -1.1737390092077977,0.6934656954627321 l -29.17055767326576 -50.357920052549176" fill="#3aff95" stroke="none" /><path d="M 110.5260780823613 118.17145234162733 l 31.221681410668108 53.89883025189915 a83.28866102776891,83.28866102776891 0 0,0 -1.2467568235981632,0.7079410627933836 l -30.289275820148745 -54.42827448048716" fill="#4ae6ff" stroke="none" /><path d="M 110.21172684928248 118.3499491758327 l 30.635180547847472 55.049847527498095 a84.0,84.0 0 0,0 -1.2695087525254052,0.692237392960918 l -29.683048983453418 -55.56902557221878" fill="#4dd2ff" stroke="none" /><path d="M 109.2508944713604 118.85261126421891 l 22.377981638947528 45.604605049058115 a71.79915416533674,71.79915416533674 0 0,0 -1.114211180513408,0.5348890771483683 l -21.589657790433886 -45.98304840270604" fill="#c7ff1e" stroke="none" /><path d="M 108.2653958097858 119.30500536409082 l 19.538968310317934 45.63603446466569 a70.6429141398021,70.6429141398021 0 0,0 -1.1219727642806838,0.46898470646401136 l -18.750524086539787 -45.96560421414968" fill="#f2ff19" stroke="none" /><line stroke="#e1ed5e" stroke-width="0.3" x1="102.19456741930631" x2="102.32365962044197" y1="184.97166512339345" y2="189.96999836594603" /><path d="M 102.22038585953345 185.97133177190398 a86.0,86.0 0 0,1 -42.740103519485714,-10.115201625700543" fill="none" id="id19" stroke="none" /><text fill="#e1ed5e" style="font-size:6.75px; font-family:Arial;" text-anchor="middle"><textPath startOffset="22.20632615414155" xlink:href="#id19">July</textPath></text><line stroke="#e1ed5e" stroke-width="0.3" x1="58.666819895761336" x2="56.23545636021788" y1="174.27360380694188" y2="178.64263932499728" /><path d="M 58.180547188652646 175.14741091055294 a86.0,86.0 0 0,1 -31.652253787137756,-30.449443065178592" fill="none" id="id20" stroke="none" /><text fill="#e1ed5e" style="font-size:6.75px; font-family:Arial;" text-anchor="middle"><textPath startOffset="22.20632615414155" xlink:href="#id20">August</textPath></text><line stroke="#e1ed5e" stroke-width="0.3" x1="26.63291911575756" x2="22.317208475507996" y1="142.92168965132927" y2="145.44649492493687" /><path d="M 25.769776987707644 143.4266507060508 a86.0,86.0 0 0,1 -11.730757126820373,-40.83630448921669" fill="none" id="id21" stroke="none" /><text fill="#e1ed5e" style="font-size:6.75px; font-family:Arial;" text-anchor="middle"><textPath startOffset="21.46611528233685" xlink:href="#id21">September</textPath></text><line stroke="#e1ed5e" stroke-width="0.3" x1="15.007084014347285" x2="10.007500721073583" y1="101.09737516637583" y2="101.16192664675087" /><path d="M 14.007167355692545 101.11028546245083 a86.0,86.0 0 0,1 10.666146001902534,-42.60595125391555" fill="none" id="id22" stroke="none" /><text fill="#e1ed5e" style="font-size:6.75px; font-family:Arial;" text-anchor="middle"><textPath startOffset="22.20632615414155" xlink:href="#id22">October</textPath></text><line stroke="#e1ed5e" stroke-width="0.3" x1="26.266209847984243" x2="21.928928074336255" y1="57.711370442889674" y2="55.22380399835377" /><path d="M 25.398753493254645 57.213857153982495 a86.0,86.0 0 0,1 29.58750427330803,-30.492523968695096" fill="none" id="id23" stroke="none" /><text fill="#e1ed5e" style="font-size:6.75px; font-family:Arial;" text-anchor="middle"><textPath startOffset="21.46611528233685" xlink:href="#id23">November</textPath></text><line stroke="#e1ed5e" stroke-width="0.3" x1="56.762969772571076" x2="54.21961505331055" y1="26.818313649435495" y2="22.513508569990535" /><path d="M 56.25429882871897 25.957352633546506 a86.0,86.0 0 0,1 42.265352541879196,-11.944610805530505" fill="none" id="id24" stroke="none" /><text fill="#e1ed5e" style="font-size:6.75px; font-family:Arial;" text-anchor="middle"><textPath startOffset="22.20632615414155" xlink:href="#id24">December</textPath></text></svg>