<?xml version="1.0" encoding="utf-8" ?>
<svg baseProfile="full" height="200mm" version="1.1" viewBox="0,0,200,200" width="200mm" xmlns="http://www.w3.org/2000/svg" xmlns:ev="http://www.w3.org/2001/xml-events" xmlns:xlink="http://www.w3.org/1999/xlink"><defs /><rect fill="#1a1a1a" height="200" width="200" x="0" y="0" /><text alignment-baseline="middle" fill="#e1ed5e" style="dominant-baseline: central; font-size:9.0px; font-family:Arial;" text-anchor="middle" x="100.0" y="100.0">2023</text><line stroke="#e1ed5e" stroke-width="0.3" x1="100.0" x2="100.0" y1="15.0" y2="10.0" /><path d="M 100.0 14.0 a86.0,86.0 0 0,1 42.46469731375804,11.215312516191453" fill="none" id="id25" stroke="none" /><text fill="#e1ed5e" style="font-size:6.75px; font-family:Arial;" text-anchor="middle"><textPath startOffset="22.20632615414155" xlink:href="#id25">January</textPath></text><line stroke="#e1ed5e" stroke-width="0.3" x1="143.23703022742887" x2="145.7803849466894" y1="26.81831364943548" y2="22.513508569990506" /><path d="M 143.74570117128098 25.957352633546492 a86.0,86.0 0 0,1 28.547481713284135,27.462654790039103" fill="none" id="id26" stroke="none" /><text fill="#e1ed5e" style="font-size:6.75px; font-family:Arial;" text-anchor="middle"><textPath startOffset="19.985693538727396" xlink:href="#id26">February</textPath></text><path d="M 115.4437574822437 85.77008943001954 l 8.958627967466155 -8.254498618832798 a33.18169784996243,33.18169784996243 0 0,0 0.38341666659288576,0.42337825964578246 l -9.099388274675077 8.099067571917466" fill="#ff8a0c" stroke="none" /><path d="M 115.68641384162765 86.03803664274999 l 12.47745082688717 -11.105770445414384 a37.70403892247701,37.70403892247701 0 0,0 0.42732704950128714,0.4885086885297412 l -12.666769739966306 10.889346200681695" fill="#ffc712" stroke="none" /><path d="M 116.15771136456269 86.58626213691792 l 8.061611079231842 -6.692552882712097 a31.477587378814437,31.477587378814437 0 0,0 0.34250838961217617,0.41987478701667474 l -8.175617960920427 6.552793926087322" fill="#ff730a" stroke="none" /><path d="M 116.38621287248628 86.86637796730983 l 3.9344184427134987 -3.15345376916272 a26.042213715880226,26.042213715880226 0 0,0 0.277344515707453,0.3521993701719282 l -3.9881170390149157 3.0852620050377535" fill="#ff2503" stroke="none" /><path d="M 117.04232023915458 87.72973835380427 l 20.436802345483052 -14.714247148961185 a46.182771080027194,46.182771080027194 0 0,0 0.4589410241375179,0.6491395316222514 l -20.687055989424454 14.36028111700714" fill="#cdff1d" stroke="none" /><path d="M 117.45458315368197 88.32363383020206 l 22.54490483181366 -15.081572659841678 a48.124280041498224,48.124280041498224 0 0,0 0.454667575295748,0.6924899101247866 l -22.801169042467333 14.691264685739219" fill="#b7ff1f" stroke="none" /><line stroke="#e1ed5e" stroke-width="0.3" x1="172.23445277983987" x2="176.4835382374775" y1="55.19839476539836" y2="52.563006222186495" /><path d="M 173.08426987136738 54.67131705675599 a86.0,86.0 0 0,1 12.851231095245387,41.99856678651699" fill="none" id="id27" stroke="none" /><text fill="#e1ed5e" style="font-size:6.75px; font-family:Arial;" text-anchor="middle"><textPath startOffset="22.20632615414155" xlink:href="#id27">March</textPath></text><path d="M 118.3937258080291 89.86733742301442 l 23.047486054024798 -12.69630752738928 a47.3131685328945,47.3131685328945 0 0,0 0.38682323035284644,0.7167246975766693 l -23.262617383596112 12.297701846480152" fill="#c0ff1e" stroke="none" /><path d="M 120.28053869075195 94.5502522615342 l 24.230526628075932 -6.511180975355837 a46.09011555110364,46.09011555110364 0 0,0 0.19929293126484837,0.7679569608665561 l -24.339015891211083 6.093127588940431" fill="#cfff1d" stroke="none" /><path d="M 120.78858239683441 97.02765380044208 l 29.82971559178007 -4.265045113736195 a51.13308052802919,51.13308052802919 0 0,0 0.11708014725169016,0.8723830889011107 l -29.898711738089595 3.75094368277042" fill="#94ff23" stroke="none" /><line stroke="#e1ed5e" stroke-width="0.3" x1="184.98032266829074" x2="189.97916517819016" y1="98.17113171792111" y2="98.06355123074" /><path d="M 185.9800911702706 98.14961562048488 a86.0,86.0 0 0,1 -9.607161424134198,41.387399972396054" fill="none" id="id28" stroke="none" /><text fill="#e1ed5e" style="font-size:6.75px; font-family:Arial;" text-anchor="middle"><textPath startOffset="21.466115282336823" xlink:href="#id28">April</textPath></text><path d="M 120.99513854157772 99.54816195383933 l 5.2773885369240805 -0.11357509837966952 a26.2786105248095,26.2786105248095 0 0,0 0.005840099441695769,0.45232213777473096 l -5.278561643483492 0.02271670254447585" fill="#ff2904" stroke="none" /><path d="M 118.81262510543309 109.33194174019688 l 33.850566157586066 16.791463683823885 a58.78642721711444,58.78642721711444 0 0,0 -0.4574741016349295,0.9026398031049835 l -33.556513386164866 -17.371657698631566" fill="#43ff2d" stroke="none" /><line stroke="#e1ed5e" stroke-width="0.3" x1="174.80103733775053" x2="179.2010983576182" y1="140.37084112569926" y2="142.7455964860345" /><path d="M 175.68104954172406 140.8457921977663 a86.0,86.0 0 0,1 -30.038265399797805,32.042727171017184" fill="none" id="id29" stroke="none" /><text fill="#e1ed5e" style="font-size:6.75px; font-family:Arial;" text-anchor="middle"><textPath startOffset="22.206326154141568" xlink:href="#id29">May</textPath></text><path d="M 114.55890576462653 115.13401014063108 l 8.749857399103403 9.095493352862132 a33.62093514112975,33.62093514112975 0 0,0 -0.42052451789741047,0.3976321794889764 l -8.591997046815186 -9.24476016909703" fill="#ff900d" stroke="none" /><path d="M 114.29624159901734 115.38237550388516 l 8.666155635584103 9.32455283707769 a33.72986799270203,33.72986799270203 0 0,0 -0.4286912839845418,0.39159932374764045 l -8.504364802132697 -9.472344927411912" fill="#ff920d" stroke="none" /><path d="M 114.0293411484842 115.62618273729858 l 10.050856288754145 11.194860497876478 a36.04475369370014,36.04475369370014 0 0,0 -0.4652479107750448,0.41052718781194697 l -9.856666025072512 -11.366210827460714" fill="#ffb110" stroke="none" /><path d="M 112.92097659922987 116.55440617244103 l 7.8736310377806324 10.087727135047034 a33.796730225736056,33.796730225736056 0 0,0 -0.46168147488663214,0.353997667835032 l -7.6988208344005065 -10.221764144709438" fill="#ff930d" stroke="none" /><path d="M 112.34349029814194 116.9893568818739 l 14.734499687748507 20.280298977405188 a46.06782814009229,46.06782814009229 0 0,0 -0.6455477565230147,0.4605811839231773 l -14.383224603376608 -20.530924423172586" fill="#cfff1d" stroke="none" /><path d="M 111.7513745106137 117.40417183066458 l 7.019939494976013 10.396761085359257 a33.544807355203375,33.544807355203375 0 0,0 -0.4813285324769773,0.3189983052830767 l -6.839936263759072 -10.516057411733653" fill="#ff8f0d" stroke="none" /><path d="M 111.1453310114006 117.79835938074945 l 13.3148820843934 21.262989516231077 a46.08786176796765,46.08786176796765 0 0,0 -0.6760009550085028,0.4152549993199493 l -12.946901929452588 -21.489032982379406" fill="#cfff1d" stroke="none" /><line stroke="#e1ed5e" stroke-width="0.3" x1="143.8653032363475" x2="146.44561519142675" y1="172.8068346515853" y2="177.08958963109032" /><path d="M 144.38136562736335 173.6633856474863 a86.0,86.0 0 0,1 -40.68145358897372,12.25698825130547" fill="none" id="id30" stroke="none" /><text fill="#e1ed5e" style="font-size:6.75px; font-family:Arial;" text-anchor="middle"><textPath startOffset="21.466115282336833" xlink:href="#id30">June</textPath></text><path d="M 110.8373102113329 117.98757091392108 l 6.895459771116874 11.444959053340568 a34.36167853182127,34.36167853182127 0 0,0 -0.5092599221189081,0.3008797384197387 l -6.697431977969584 -11.561957364054056" fill="#ff9b0e" stroke="none" /><path d="M 110.21172684928248 118.3499491758327 l 4.0787725922884475 7.329345063076308 a29.387829571065716,29.387829571065716 0 0,0 -0.4441441292642006,0.2421827919887417 l -3.9520056511555985 -7.39846850682482" fill="#ff5607" stroke="none" /><path d="M 109.89434966115114 118.52300852407294 l 9.853289862178096 18.446141318807218 a41.91285371874218,41.91285371874218 0 0,0 -0.6392889689137771,0.33444577387308166 l -9.534309990737823 -18.613016511625016" fill="#fffd17" stroke="none" /><path d="M 108.92500713936063 119.00905698771935 l 5.673822196859664 12.084473187997785 a34.35015919579294,34.35015919579294 0 0,0 -0.5373869831572411,0.24668800680040331 l -5.464967217935003 -12.180348265132263" fill="#ff9a0e" stroke="none" /><path d="M 108.59647513512805 119.15986991738527 l 5.378960437048366 11.988655890304441 a34.14005652345008,34.14005652345008 0 0,0 -0.5382412800442858,0.23594915971826183 l -5.171798482346326 -12.079469603317158" fill="#ff980e" stroke="none" /><path d="M 108.2653958097858 119.30500536409082 l 5.116011816295709 11.949171924641341 a33.99831860623189,33.99831860623189 0 0,0 -0.5399718849655636,0.2257082917086221 l -4.909568471832684 -12.035465259369936" fill="#ff960d" stroke="none" /><path d="M 107.93186726928326 119.44442032107085 l 9.516935439648389 23.330104573691386 a46.19654419919151,46.19654419919151 0 0,0 -0.738878359819467,0.2940149480836408 l -9.113936003787055 -23.490466366181096" fill="#cdff1d" stroke="none" /><path d="M 107.59598834532513 119.57807347666477 l 4.5384442940432175 11.697489756314907 a33.54706113833935,33.54706113833935 0 0,0 -0.5401552560403928,0.2042404985865012 l -4.336418817242549 -11.773878505008039" fill="#ff8f0d" stroke="none" /><path d="M 107.2578585660854 119.70592522655815 l 4.350872392655283 11.813121633507492 a33.58888133652918,33.58888133652918 0 0,0 -0.5442685380547547,0.19515533359937692 l -4.1468842939707935 -11.886264508146828" fill="#ff900d" stroke="none" /><path d="M 106.91757812671514 119.82793768551818 l 0.8282879830470988 2.3741318439319334 a23.5144707187064,23.5144707187064 0 0,0 -0.3833197638559294,0.1300428759020051 l -0.7872984862539425 -2.3880377067320615" fill="#ff0000" stroke="none" /><path d="M 106.57524785965236 119.94407469862006 l 3.9269266096062374 11.911173435540476 a33.541802311022074,33.541802311022074 0 0,0 -0.5498917420411555,0.1760579707927066 l -3.721313522474141 -11.977004252992888" fill="#ff8f0d" stroke="none" /><path d="M 105.88484417918355 120.15858648285463 l 3.9195803286960014 13.426557547947892 a34.98697814188101,34.98697814188101 0 0,0 -0.5795656770364684,0.16379104945558007 l -3.6878834835549275 -13.49203739074199" fill="#ffa30f" stroke="none" /><path d="M 105.53697534728816 120.25689768951611 l 3.308359111737803 12.103556155342828 a33.54756197903624,33.54756197903624 0 0,0 -0.5583425491450857,0.1474633419256773 l -3.0995261197812196 -12.15871084657209" fill="#ff8f0d" stroke="none" /><path d="M 105.18746579009965 120.34920634021253 l 3.5310571582116226 13.851505459306829 a35.29449432976782,35.29449432976782 0 0,0 -0.5900007762435406,0.14500783615309393 l -3.2921030972248704 -13.910234553773952" fill="#ffa70f" stroke="none" /><path d="M 104.83641907484287 120.43548508189849 l 3.0201161625254485 12.760998960143779 a34.113511966515226,34.113511966515226 0 0,0 -0.5725869334115286,0.13031892186145724 l -2.800009079721058 -12.811094615582919" fill="#ff970d" stroke="none" /><path d="M 104.13013068566511 120.58985236759428 l 2.5022901506885016 12.474613687742071 a33.7231066432941,33.7231066432941 0 0,0 -0.5701330950295956,0.10926736459062464 l -2.2871894410872016 -12.515838250681163" fill="#ff920d" stroke="none" /><path d="M 103.7750983002368 120.6578951692458 l 2.391539336267789 13.086856280973814 a34.30358101098272,34.30358101098272 0 0,0 -0.5817740790120643,0.10114888085808904 l -2.1659162857836747 -13.12608374035291" fill="#ff9a0e" stroke="none" /><path d="M 103.41894727170886 120.7198165907248 l 3.3240750421179213 20.14486323799442 a41.4172718491754,41.4172718491754 0 0,0 -0.7044173396048574,0.11001550137200336 l -2.976821838904547 -20.19909704671353" fill="#fff617" stroke="none" /><path d="M 103.06178313531738 120.77559828337769 l 3.972479145813823 26.955087044062775 a48.246234751189505,48.246234751189505 0 0,0 -0.8226474879661583,0.11401144585112745 l -3.5079030666608344 -27.019473055406507" fill="#b5ff1f" stroke="none" /><path d="M 102.70371172650421 120.8252237178851 l 1.6810220215862681 12.948000088563068 a34.05666654741888,34.05666654741888 0 0,0 -0.5820001755310507,0.07047211610452932 l -1.457894423003837 -12.97501773339295" fill="#ff960d" stroke="none" /><path d="M 102.34483914955558 120.86867818915974 l 1.7558541646852832 15.626809846149916 a36.72514578041713,36.72514578041713 0 0,0 -0.628817395597395,0.06517949413288028 l -1.4866041724822856 -15.654718708738555" fill="#ffba11" stroke="none" /><path d="M 101.62511606390274 120.93702456842531 l 1.034013258227001 13.321609128387763 a34.36167853182127,34.36167853182127 0 0,0 -0.5901000419389486,0.04069675382312471 l -0.8045504555091221 -13.337434226727174" fill="#ff9b0e" stroke="none" /><path d="M 101.26447882468166 120.96189622390904 l 0.8229765412454294 13.642892641275603 a34.66769219761743,34.66769219761743 0 0,0 -0.595973834471848,0.030805039786478423 l -0.5880146383601017 -13.655037487824284" fill="#ff9f0e" stroke="none" /><line stroke="#e1ed5e" stroke-width="0.3" x1="102.19456741930631" x2="102.32365962044197" y1="184.97166512339345" y2="189.96999836594603" /><path d="M 102.22038585953345 185.97133177190398 a86.0,86.0 0 0,1 -42.740103519485714,-10.115201625700543" fill="none" id="id31" stroke="none" /><text fill="#e1ed5e" style="font-size:6.75px; font-family:Arial;" text-anchor="middle"><textPath startOffset="22.20632615414155" xlink:href="#id31">July</textPath></text><path d="M 100.54218724476979 120.99299961872073 l 0.3885031940635137 15.042492208222257 a36.047508317533,36.047508317533 0 0,0 -0.6204296468993219,0.01068125902550144 l -0.12951385727152384 -15.046950944526918" fill="#ffb110" stroke="none" /><path d="M 100.18074693466247 120.99922214144158 l 0.10790414612631762 12.53632953012783 a33.53679390405323,33.53679390405323 0 0,0 -0.5773021615775374,0.0 l 0.10790414612630898 -12.53632953012783" fill="#ff8f0d" stroke="none" /><path d="M 99.81925306533755 120.99922214144158 l -0.13025099284020092 15.132591531373569 a36.13315207670018,36.13315207670018 0 0,0 -0.6219036996075191,-0.010706636179659342 l 0.39071438234038797 -15.12810741791475" fill="#ffb210" stroke="none" /><path d="M 99.45781275523022 120.99299961872073 l -0.38847086674951375 15.041240523870028 a36.04625621579079,36.04625621579079 0 0,0 -0.6201323223374576,-0.02135861105132165 l 0.6473235407616144 -15.032325114392613" fill="#ffb110" stroke="none" /><path d="M 98.73552117531835 120.96189622390904 l -0.7970412978195213 13.21295117398976 a34.23696919829714,34.23696919829714 0 0,0 -0.5879583833795566,-0.04054905250983824 l 1.024362441978008 -13.197273776963636" fill="#ff990e" stroke="none" /><path d="M 98.37488393609728 120.93702456842531 l -1.176314350026771 15.154931388442703 a36.20051515043108,36.20051515043108 0 0,0 -0.6208486301005316,-0.05356943219986759 l 1.4370072978688442 -15.132437703964174" fill="#ffb310" stroke="none" /><path d="M 98.01472825383883 120.90594882070398 l -2.373997608286488 24.99943526385211 a46.11190212141809,46.11190212141809 0 0,0 -0.789539852922635,-0.08183903398911421 l 2.803970057814716 -24.954866861407236" fill="#ceff1d" stroke="none" /><path d="M 97.65516085044442 120.86867818915974 l -1.6805533403282849 14.956645041377532 a36.050763782062745,36.050763782062745 0 0,0 -0.6160776428302143,-0.07459842281889947 l 1.9377584062098883 -14.925501089833284" fill="#ffb110" stroke="none" /><path d="M 97.2962882734958 120.8252237178851 l -1.973255927178194 15.198919224003639 a36.32647658569742,36.32647658569742 0 0,0 -0.6194034594409177,-0.08584367546133088 l 2.2345879778059428 -15.162700983049703" fill="#ffb510" stroke="none" /><path d="M 96.93821686468263 120.77559828337769 l -3.763088069351586 25.534272866035714 a46.81007405287447,46.81007405287447 0 0,0 -0.7961371273102986,-0.1243402458988887 l 4.202061060270402 -25.46571431278972" fill="#c6ff1e" stroke="none" /><path d="M 96.58105272829116 120.7198165907248 l -0.90012423073001 5.455015093073161 a26.52878045290309,26.52878045290309 0 0,0 -0.44991678304255295,-0.07822379979751927 l 0.9938899852446129 -5.438712714754636" fill="#ff2d04" stroke="none" /><path d="M 96.22490169976321 120.6578951692458 l -4.578655517222769 25.055078879653006 a46.47000321969019,46.47000321969019 0 0,0 -0.7856360044736962,-0.15056901008682985 l 5.00925913626816 -24.97255267121771" fill="#caff1d" stroke="none" /><path d="M 95.86986931433489 120.58985236759428 l -2.757262026810181 13.745719540507254 a35.01953278717848,35.01953278717848 0 0,0 -0.5900099865170139,-0.12364232923428971 l 2.993463474756582 -13.696221230546422" fill="#ffa30f" stroke="none" /><path d="M 95.51606077576429 120.51570834832081 l -4.360744385606121 19.95204562834406 a41.42303151718957,41.42303151718957 0 0,0 -0.6952754267082725,-0.15824242349635131 l 4.703539961707256 -19.87402647127002" fill="#fff617" stroke="none" /><path d="M 95.16358092515715 120.4354850818985 l -3.4633925790012143 14.633989794037236 a36.03824276464064,36.03824276464064 0 0,0 -0.6024336545787551,-0.14806353515746234 l 3.71477951832318 -14.572205000565743" fill="#ffb110" stroke="none" /><path d="M 94.81253420990036 120.34920634021253 l -4.409831517721689 17.298730268439535 a38.85196579973527,38.85196579973527 0 0,0 -0.6466253982175542,-0.17077964475604548 l 4.706947358750733 -17.220259274379906" fill="#ffd614" stroke="none" /><path d="M 94.46302465271185 120.25689768951611 l -4.5836745678351845 16.769268587794965 a38.384431009194,38.384431009194 0 0,0 -0.6358451037208264,-0.17969617759657813 l 4.871650839660624 -16.687883616859867" fill="#ffd013" stroke="none" /><path d="M 94.11515582081647 120.15858648285463 l -4.29024712599202 14.696279984447719 a36.30969842235181,36.30969842235181 0 0,0 -0.5984616806906421,-0.18031159513606554 l 4.542583781122908 -14.620253020205928" fill="#ffb510" stroke="none" /><path d="M 93.76903079525671 120.05430185196036 l -4.478386051685421 14.41363337532471 a36.09333524129789,36.09333524129789 0 0,0 -0.5917221384788475,-0.18945074277167426 l 4.725829535255208 -14.33440978589333" fill="#ffb210" stroke="none" /><path d="M 92.40401165467489 119.57807347666478 l -4.435635450962036 11.432507901105394 a33.26283404285765,33.26283404285765 0 0,0 -0.5320135669577751,-0.21169917780120184 l 4.63177009396167 -11.354461878898125" fill="#ff8c0c" stroke="none" /><path d="M 92.06813273071674 119.44442032107085 l -5.7988637897568305 14.215510810338923 a36.352770722283836,36.352770722283836 0 0,0 -0.5773660267727005,-0.24133904601676093 l 6.042701276026993 -14.11358672130219" fill="#ffb510" stroke="none" /><path d="M 91.7346041902142 119.30500536409082 l -6.018553337542183 14.057185782652757 a36.291417736915534,36.291417736915534 0 0,0 -0.5721589571453335,-0.25081767261070836 l 6.25963296934526 -13.951503556747596" fill="#ffb410" stroke="none" /><path d="M 91.40352486487194 119.15986991738527 l -6.163682615459811 13.737648893054104 a36.057024290773796,36.057024290773796 0 0,0 -0.5640898312814646,-0.25894597468224 l 6.399240442508695 -13.62951584803779" fill="#ffb110" stroke="none" /><path d="M 91.07499286063937 119.00905698771935 l -7.100180079516402 15.122422385453213 a37.706292705612995,37.706292705612995 0 0,0 -0.5851430061635311,-0.2809042020404237 l 7.3594357536801756 -14.997963906913228" fill="#ffc712" stroke="none" /><path d="M 90.7491055286396 118.85261126421891 l -22.15519672366872 45.15058653049367 a71.29342109970307,71.29342109970307 0 0,0 -1.0970566874426895,-0.5500869976070099 l 22.92910731879417 -44.76253169197736" fill="#3dffab" stroke="none" /><path d="M 90.10565033884886 118.52300852407294 l -7.291653955558022 13.65055541787652 a36.47597753371731,36.47597753371731 0 0,0 -0.5512687230473258,-0.30059566182907344 l 7.525545490473989 -13.52301910428768" fill="#ffb711" stroke="none" /><line stroke="#e1ed5e" stroke-width="0.3" x1="58.666819895761336" x2="56.23545636021788" y1="174.27360380694188" y2="178.64263932499728" /><path d="M 58.180547188652646 175.14741091055294 a86.0,86.0 0 0,1 -31.652253787137756,-30.449443065178592" fill="none" id="id32" stroke="none" /><text fill="#e1ed5e" style="font-size:6.75px; font-family:Arial;" text-anchor="middle"><textPath startOffset="22.20632615414155" xlink:href="#id32">August</textPath></text><path d="M 89.7882731507175 118.34994917583269 l -12.187243426822294 21.899851100247893 a46.06256931277502,46.06256931277502 0 0,0 -0.6895154982022946,-0.39152489512836297 l 12.562407691945795 -21.686823039324896" fill="#cfff1d" stroke="none" /><path d="M 89.4739219176387 118.17145234162733 l -7.703107428378942 13.298082003760209 a36.368046363538795,36.368046363538795 0 0,0 -0.5389954522029851,-0.31844801372450593 l 7.93087075161031 -13.163515417741953" fill="#ffb510" stroke="none" /><path d="M 89.1626897886671 117.98757091392108 l -7.760671517797296 12.881021816654005 a36.03824276464064,36.03824276464064 0 0,0 -0.5285965890189666,-0.3247071983956555 l 7.981247306748571 -12.745526151429972" fill="#ffb110" stroke="none" /><path d="M 88.8546689885994 117.79835938074946 l -8.00490450418748 12.78330513722486 a36.082817586663325,36.082817586663325 0 0,0 -0.5235757691465536,-0.3341708279994619 l 8.223762075380955 -12.643619880401593" fill="#ffb210" stroke="none" /><path d="M 88.54995079064634 117.60387380957326 l -13.670997472978883 21.01846987423559 a46.073337387758016,46.073337387758016 0 0,0 -0.6610982032581698,-0.43813984053631533 l 14.030770374977015 -20.780032012607954" fill="#cfff1d" stroke="none" /><path d="M 88.24862548938628 117.40417183066458 l -14.020540699697387 20.764881527345338 a46.05505670232176,46.05505670232176 0 0,0 -0.6531991222423309,-0.44927631246586397 l 14.375896706562607 -20.520464425514373" fill="#cfff1d" stroke="none" /><path d="M 87.95078237400918 117.19931262002967 l -8.77048669660358 12.519181510948277 a36.28565806890137,36.28565806890137 0 0,0 -0.5084703600332002,-0.36278010115830706 l 8.984684384485668 -12.36635714794575" fill="#ffb410" stroke="none" /><path d="M 87.65650970185807 116.9893568818739 l -12.966854295001315 17.847343817023802 a43.060530175651984,43.060530175651984 0 0,0 -0.5959065357518765,-0.44083740903601154 l 13.272145801171757 -17.621496459248025" fill="#f3ff19" stroke="none" /><path d="M 87.36589467227662 116.77436683061367 l -9.23991079966699 12.267877243009528 a36.35827996994956,36.35827996994956 0 0,0 -0.49667361927472486,-0.38082815201023673 l 9.449713147435203 -12.107009749171924" fill="#ffb510" stroke="none" /><path d="M 87.07902340077011 116.55440617244103 l -9.432148052069024 12.084505279721318 a36.329732050227165,36.329732050227165 0 0,0 -0.4896599261144215,-0.3890154595893782 l 9.638765470900804 -11.92035590612681" fill="#ffb510" stroke="none" /><path d="M 86.79598089348748 116.32954008644616 l -9.662068811362339 11.949175376103724 a36.366794261796585,36.366794261796585 0 0,0 -0.48338374321604904,-0.39779191206911174 l 9.866322683123077 -11.781088345177432" fill="#ffb510" stroke="none" /><path d="M 86.51685102203217 116.09983520530335 l -6.647596495237006 7.9377012194668035 a31.353629306335634,31.353629306335634 0 0,0 -0.41078408841801367,-0.35007911192031366 l 6.783246060232076 -7.822097717323539" fill="#ff710a" stroke="none" /><path d="M 86.24171649860922 115.8653595955263 l -16.414487485310413 18.928360249619125 a46.054305441276426,46.054305441276426 0 0,0 -0.5944462700682726,-0.5245297182525657 l 16.737876108285274 -18.64300738959427" fill="#cfff1d" stroke="none" /><path d="M 85.97065885151581 115.62618273729859 l -10.270015077965963 11.43896428382506 a36.3728043501592,36.3728043501592 0 0,0 -0.4622818032481638,-0.42228346667143185 l 10.465396430680983 -11.260488050567051" fill="#ffb510" stroke="none" /><path d="M 85.70375840098266 115.38237550388516 l -10.448859917783082 11.242695202764466 a36.34851357636032,36.34851357636032 0 0,0 -0.45464057093660687,-0.42989103705419984 l 10.640836323110507 -11.061169528964335" fill="#ffb510" stroke="none" /><path d="M 85.18274418774928 114.88116024355367 l -17.676670434529235 17.752907059297097 a46.052552498837336,46.052552498837336 0 0,0 -0.556927497485808,-0.5641646146085905 l 17.979638557070576 -17.446001950707842" fill="#cfff1d" stroke="none" /><path d="M 84.9287848128048 114.62390073753433 l -11.092374120293435 10.763151880187202 a36.45594390584195,36.45594390584195 0 0,0 -0.4331199603716088,-0.45412454685884895 l 11.276000632044003 -10.570620216745851" fill="#ffb610" stroke="none" /><path d="M 84.67929136418377 114.36230785411682 l -38.57755128743545 36.16429768482509 a73.87800951597325,73.87800951597325 0 0,0 -0.8617468476696839,-0.9352560060759926 l 39.19434454310086 -35.49489042394775" fill="#40ffc7" stroke="none" /><path d="M 83.95833913139862 113.55231037782056 l -19.14615906481803 16.175051468480476 a46.06407183486566,46.06407183486566 0 0,0 -0.5064942118029508,-0.6101049063033779 l 19.421749276514518 -15.843085305063335" fill="#cfff1d" stroke="none" /><path d="M 83.72743513129214 113.27417163493432 l -11.854508882698715 9.670189476976507 a36.298429506671916,36.298429506671916 0 0,0 -0.3907821300951348,-0.48756079279303677 l 12.01920892484871 -9.464700850605212" fill="#ffb410" stroke="none" /><path d="M 83.50135304334701 112.99209946851258 l -19.691781147455146 15.506579421456921 a46.06432225521411,46.06432225521411 0 0,0 -0.48519590725349393,-0.6271811151916359 l 19.95578387192671 -15.165320312152033" fill="#cfff1d" stroke="none" /><path d="M 83.28015986056508 112.70617746262583 l -12.222017917544457 9.288074964630674 a36.350767359496295,36.350767359496295 0 0,0 -0.37430685183233936,-0.5014451963809294 l 12.380086036071882 -9.076316888740436" fill="#ffb510" stroke="none" /><path d="M 83.06392112726016 112.41649034213515 l -47.93153277649344 35.140448876923884 a80.43301255679175,80.43301255679175 0 0,0 -0.8090036958143297,-1.1236353760233013 l 48.52931626468338 -34.310179895449444" fill="#48f4ff" stroke="none" /><path d="M 82.85270091963577 112.12312394758628 l -12.611982732655829 8.91665965445777 a36.44567667155582,36.44567667155582 0 0,0 -0.35775612985412847,-0.5153743877678789 l 12.763599769672092 -8.69824400450288" fill="#ffb610" stroke="none" /><path d="M 82.6465618267979 111.8261652097733 l -20.717802139143974 14.118939914700547 a46.07133402497049,46.07133402497049 0 0,0 -0.440961669933525,-0.659177866085571 l 20.95776691448823 -13.760225134409156" fill="#cfff1d" stroke="none" /><path d="M 82.24976979558568 111.22182372390057 l -12.933099795131346 8.176399090783917 a36.300933710156336,36.300933710156336 0 0,0 -0.32936245165972783,-0.5310371433631609 l 13.07192688645903 -7.952565616055493" fill="#ffb410" stroke="none" /><path d="M 82.05923443525364 110.91462005526583 l -21.44381348276538 13.045768635441153 a46.100382785389755,46.100382785389755 0 0,0 -0.40660345378505697,-0.6814907763307221 l 21.665197812248667 -12.674715765224319" fill="#ceff1d" stroke="none" /><line stroke="#e1ed5e" stroke-width="0.3" x1="26.63291911575756" x2="22.317208475507996" y1="142.92168965132927" y2="145.44649492493687" /><path d="M 25.769776987707644 143.4266507060508 a86.0,86.0 0 0,1 -11.730757126820373,-40.83630448921669" fill="none" id="id33" stroke="none" /><text fill="#e1ed5e" style="font-size:6.75px; font-family:Arial;" text-anchor="middle"><textPath startOffset="21.46611528233685" xlink:href="#id33">September</textPath></text><path d="M 81.87401531095188 110.60418214915194 l -13.443562929680034 7.864841137488573 a36.57514399170036,36.57514399170036 0 0,0 -0.31323650654031826,-0.5461542519367627 l 13.576951432372729 -7.632267039693503" fill="#ffb811" stroke="none" /><path d="M 81.69416730710424 110.29060199501025 l -52.42284567388382 29.469440113759003 a81.13819625800451,81.13819625800451 0 0,0 -0.6739245486642224,-1.223368810443224 l 52.92234663199956 -28.562700784917954" fill="#49edff" stroke="none" /><path d="M 81.35079622478065 109.6543875284942 l -30.29986901782857 15.68574621665268 a55.11927163452938,55.11927163452938 0 0,0 -0.4289364138536614,-0.8463322377414125 l 30.565384101468496 -15.16185976720858" fill="#69ff28" stroke="none" /><path d="M 81.18737489456691 109.33194174019688 l -13.621032429752088 6.756669011549552 a36.20477229635459,36.20477229635459 0 0,0 -0.27213359057072456,-0.5606757998826958 l 13.735319276937531 -6.521204255701571" fill="#ffb310" stroke="none" /><path d="M 81.02952815118164 109.00673069616217 l -35.07520552545687 16.65287678651002 a59.827675025936394,59.827675025936394 0 0,0 -0.43368051211454756,-0.9341092410651534 l 35.35666065441125 -16.04664747816604" fill="#38ff2e" stroke="none" /><path d="M 80.45479744820244 107.68017299344265 l -50.258992387960404 19.74897701841178 a74.99989267699353,74.99989267699353 0 0,0 -0.46180548347657857,-1.2056283932283542 l 50.591492151030494 -18.880925058350268" fill="#42ffd3" stroke="none" /><path d="M 80.20201598880116 107.00284435728193 l -15.799385706930062 5.588480068663126 a37.758630558437375,37.758630558437375 0 0,0 -0.21146481736664008,-0.6146157437543105 l 15.893241355239931 -5.315691621819519" fill="#ffc812" stroke="none" /><path d="M 79.97269907076064 106.31721596034903 l -34.31095374261509 10.82271172553243 a56.97739061996923,56.97739061996923 0 0,0 -0.28698488095490854,-0.9378831957947293 l 34.49216539607613 -10.230501557185653" fill="#55ff2b" stroke="none" /><path d="M 79.76711848015287 105.62410040840567 l -56.88605445261635 15.812521897373534 a80.04285765391907,80.04285765391907 0 0,0 -0.3575702119816969,-1.3306517781677552 l 57.14981274093982 -14.83097918603024" fill="#48f8ff" stroke="none" /><path d="M 79.67330655649465 105.27499134158121 l -24.263370821198503 6.296600642653493 a46.06707687904697,46.06707687904697 0 0,0 -0.1925794349276205,-0.7692591134200883 l 24.36816157042118 -5.8780136898360125" fill="#cfff1d" stroke="none" /><path d="M 79.50377843672027 104.57218783832718 l -37.09772353044142 8.275562392406465 a59.00955174757628,59.00955174757628 0 0,0 -0.21261973606762935,-0.9932886221530942 l 37.23467730523349 -7.635759950837207" fill="#40ff2d" stroke="none" /><path d="M 79.35854240842038 103.8639653848113 l -38.01288138709519 7.115798736838774 a59.673165670947654,59.673165670947654 0 0,0 -0.18030831708117245,-1.0112647974609885 l 38.12973614651555 -6.460415188644571" fill="#3aff2e" stroke="none" /><path d="M 79.23777060512086 103.15116336523772 l -59.60286692942941 9.046156227205593 a81.28544342288842,81.28544342288842 0 0,0 -0.19804985006041126,-1.38516019004579 l 59.74975083050642 -8.018850565179402" fill="#4aecff" stroke="none" /><path d="M 79.18660465613746 102.79330883721812 l -24.85004092600137 3.335055995287209 a46.07283654706113,46.07283654706113 0 0,0 -0.09872419568259086,-0.7869289751928115 l 24.90376663093081 -2.9068092658069893" fill="#cfff1d" stroke="none" /><path d="M 79.07016306316243 101.71520430193888 l -37.6966182671636 3.089245368490497 a58.82298858798697,58.82298858798697 0 0,0 -0.07401456134014978,-1.0098698846435135 l 37.744209387168084 -2.439902347350223" fill="#42ff2d" stroke="none" /><path d="M 79.0235259727143 100.99374915477108 l -25.05225203323131 1.186836941744927 a46.08034915751439,46.08034915751439 0 0,0 -0.030715552651293557,-0.7926319324396953 l 25.068969718733804 -0.7554277622912348" fill="#cfff1d" stroke="none" /><path d="M 79.0095281055655 100.63252640178507 l -58.18780380652775 1.7534299540582328 a79.2142167209244,79.2142167209244 0 0,0 -0.029339200576742108,-1.3632773646261878 l 58.2093650697895 -0.7515627736419161" fill="#47fffe" stroke="none" /><line stroke="#e1ed5e" stroke-width="0.3" x1="15.007084014347285" x2="10.007500721073583" y1="101.09737516637583" y2="101.16192664675087" /><path d="M 14.007167355692545 101.11028546245083 a86.0,86.0 0 0,1 10.666146001902534,-42.60595125391555" fill="none" id="id34" stroke="none" /><text fill="#e1ed5e" style="font-size:6.75px; font-family:Arial;" text-anchor="middle"><textPath startOffset="22.20632615414155" xlink:href="#id34">October</textPath></text><path d="M 79.00175016825051 100.2711162175752 l -20.703529646057213 0.2673109755846486 a41.705255249883734,41.705255249883734 0 0,0 -0.003089570411152991,-0.7179073562823514 l 20.70506351375787 0.08910585890137808" fill="#fffa17" stroke="none" /><path d="M 79.01574976396665 99.18683210126434 l -30.39949963539408 -1.178021466722724 a51.422316030479735,51.422316030479735 0 0,0 0.041888108740867666,-0.8841917709679917 l 30.374717918419712 1.7011243443137247" fill="#91ff24" stroke="none" /><path d="M 79.03285615573316 98.82574320788736 l -25.294137862426886 -1.4165884207309378 a46.33377455013773,46.33377455013773 0 0,0 0.05145124947828446,-0.7959280565669844 l 25.26600602194419 1.851775541550934" fill="#ccff1d" stroke="none" /><path d="M 79.05617556472873 98.46500227214037 l -52.98206412786279 -3.883118305586073 a74.12417271849175,74.12417271849175 0 0,0 0.10421687909362959,-1.2717098966171168 l 52.90737276494966 4.794542119410968" fill="#40ffca" stroke="none" /><path d="M 79.16333360222342 97.38593545837743 l -12.427855605451903 -1.5591369582076544 a33.5252745680249,33.5252745680249 0 0,0 0.0767633016150137,-0.571975759760451 l 12.399176304779054 1.7728310600327648" fill="#ff8f0d" stroke="none" /><path d="M 79.21141760316559 97.0276538004421 l -19.054031412078448 -2.724340542940168 a40.24780882195113,40.24780882195113 0 0,0 0.10396221097964331,-0.6849810760589868 l 19.004313307659505 3.0519207313912466" fill="#ffe815" stroke="none" /><path d="M 79.26566170972629 96.67025291283419 l -12.383141518403256 -1.9886204625207233 a33.541802311022074,33.541802311022074 0 0,0 0.09645366680091925,-0.5692750013880606 l 12.347075990082114 2.2014812522246117" fill="#ff8f0d" stroke="none" /><path d="M 79.3925641242962 95.95851677861259 l -12.319392972975864 -2.4160511913401503 a33.55407290809573,33.55407290809573 0 0,0 0.11603430473835799,-0.5658244786487978 l 12.275979372322512 2.627751326152351" fill="#ff900d" stroke="none" /><path d="M 79.54389044137918 95.25157060432595 l -52.05978527852922 -12.084517539400284 a74.44395950345222,74.44395950345222 0 0,0 0.30049552307642624,-1.2457479420601385 l 51.84405695519198 12.978850713119819" fill="#41ffcd" stroke="none" /><path d="M 79.71946130924805 94.55025226153421 l -32.82531149947476 -8.820755199676837 a54.98980431438486,54.98980431438486 0 0,0 0.25351145436187933,-0.9120155842811672 l 32.668613274546516 9.384482087376947" fill="#6aff28" stroke="none" /><path d="M 79.81627453868168 94.20196356495316 l -24.10402644647141 -6.924193644816138 a46.07884663542375,46.07884663542375 0 0,0 0.22555398581026787,-0.7604559112595703 l 23.981266563549433 7.338078942822248" fill="#cfff1d" stroke="none" /><path d="M 80.02781315780177 93.51064311812611 l -11.997506674009182 -3.8982262240713266 a33.61492505276715,33.61492505276715 0 0,0 0.18354182267663466,-0.5487666881589932 l 11.928627557560775 4.104166015152642" fill="#ff900d" stroke="none" /><path d="M 80.14247586403 93.16781622104843 l -44.23549492352978 -15.219673349054782 a67.78052445175831,67.78052445175831 0 0,0 0.38908254303594464,-1.0999887435813505 l 43.96695929968403 15.978859719062742" fill="#38ff84" stroke="none" /><path d="M 80.38941819471856 92.48833698450439 l -21.530505446409528 -8.247073089038338 a44.05595106070905,44.05595106070905 0 0,0 0.27735623315820424,-0.7058413606971004 l 21.385355663369634 8.616463454631202" fill="#e7ff1a" stroke="none" /><path d="M 80.65960295795068 91.81776055985345 l -34.01284388041057 -14.389633887286179 a57.931492147533355,57.931492147533355 0 0,0 0.39644255306077775,-0.9150440714624534 l 33.76011061750712 14.97297710333523" fill="#4bff2c" stroke="none" /><path d="M 80.95270993114464 91.15688171328213 l -16.306455462422207 -7.570626265994699 a38.97817765535005,38.97817765535005 0 0,0 0.2877736697353597,-0.6061247398983475 l 16.173723598845097 7.850193421533579" fill="#ffd714" stroke="none" /><path d="M 81.26839172434947 90.50648371742162 l -47.19255581914957 -23.918036854741253 a73.90755911708939,73.90755911708939 0 0,0 0.5848923401629271,-1.1298258337020253 l 46.773854045826525 24.72683541070361" fill="#40ffc8" stroke="none" /><path d="M 81.6062741919709 89.86733742301443 l -21.949245136284297 -12.091312935002433 a46.05931384824527,46.05931384824527 0 0,0 0.38852645216811327,-0.6911452054605343 l 21.737861042823752 12.467341650397751" fill="#cfff1d" stroke="none" /><line stroke="#e1ed5e" stroke-width="0.3" x1="26.266209847984243" x2="21.928928074336255" y1="57.711370442889674" y2="55.22380399835377" /><path d="M 25.398753493254645 57.213857153982495 a86.0,86.0 0 0,1 29.58750427330803,-30.492523968695096" fill="none" id="id35" stroke="none" /><text fill="#e1ed5e" style="font-size:6.75px; font-family:Arial;" text-anchor="middle"><textPath startOffset="21.46611528233685" xlink:href="#id35">November</textPath></text><path d="M 81.78341655067845 89.55222093294921 l -31.456891321101516 -18.041508802867007 a57.26337065789003,57.26337065789003 0 0,0 0.4977559200389375,-0.850826217298655 l 31.141675726592254 18.580314432519554" fill="#52ff2b" stroke="none" /><path d="M 82.15384107792192 88.93136811851018 l -19.15303429550826 -11.879188510882356 a43.53783135978249,43.53783135978249 0 0,0 0.4004908351431948,-0.6334803231144445 l 18.9457158641191 12.207116481711017" fill="#edff19" stroke="none" /><path d="M 82.34701348167596 88.62581576622439 l -51.36667739056994 -33.09661237835278 a82.1058204843845,82.1058204843845 0 0,0 0.7757176686095466,-1.1814712282225446 l 50.78936308660247 33.97590167055299" fill="#4be4ff" stroke="none" /><path d="M 82.7489923806493 88.02491185347247 l -30.00386319056439 -20.82770550981209 a57.524308660966625,57.524308660966625 0 0,0 0.5716474891452478,-0.8085548334977172 l 29.640903081615264 21.341086843641595" fill="#4fff2b" stroke="none" /><path d="M 82.95767976084542 87.72973835380427 l -21.559828635345415 -15.522812310206572 a47.56659392551783,47.56659392551783 0 0,0 0.4841314055840503,-0.6603546931388337 l 21.289434617247732 15.891629447016905" fill="#bdff1f" stroke="none" /><path d="M 83.39014120810768 87.1503855733568 l -30.538855198730417 -23.625276966612162 a59.61056058383715,59.61056058383715 0 0,0 0.6348408870514786,-0.806183457453924 l 30.127660231084967 24.147452818019136" fill="#3aff2e" stroke="none" /><path d="M 83.84228863543731 86.58626213691792 l -44.81612218441894 -37.20525150239452 a79.24702178657031,79.24702178657031 0 0,0 0.8803566235981662,-1.0420645635670411 l 44.16905494733365 37.971175015590674" fill="#47fffe" stroke="none" /><path d="M 84.5562425177563 85.77008943001954 l -25.860591149091036 -23.828002981883838 a56.164526168926415,56.164526168926415 0 0,0 0.6612241054763851,-0.7053477732047131 l 25.446599721644198 24.2696201719666" fill="#5eff2a" stroke="none" /><path d="M 84.80347519578584 85.50635884689758 l -31.806528107729164 -30.335383297084736 a64.95327871784781,64.95327871784781 0 0,0 0.7786219734730471,-0.8024383864677086 l 31.279641870553 30.878385879102566" fill="#35ff63" stroke="none" /><path d="M 85.05521093208273 85.24692304244772 l -31.725353332159532 -31.318379743456298 a65.57958000930134,65.57958000930134 0 0,0 0.7999590780212543,-0.7965237995140733 l 31.181558453970965 31.85983939362048" fill="#36ff6a" stroke="none" /><path d="M 85.57189188830299 84.74124197986013 l -43.28191560718392 -45.77372665808613 a83.9964941151218,83.9964941151218 0 0,0 1.0591242585979055,-0.9843405708352065 l 42.48758346479116 46.51197181499598" fill="#4dd2ff" stroke="none" /><path d="M 85.83668400450813 84.49514656593479 l -27.722834489417025 -30.348718172501066 a62.10474725431975,62.10474725431975 0 0,0 0.7954997442638703,-0.7142075248596015 l 27.196323757557185 30.821424706129946" fill="#31ff41" stroke="none" /><path d="M 86.37877921826538 84.01681056812374 l -26.32162566283062 -30.885890175724917 a61.58036704468214,61.58036704468214 0 0,0 0.8126921237012018,-0.6806062818254736 l 25.786076002170308 31.3343976149442" fill="#30ff3a" stroke="none" /><path d="M 86.65592168130627 83.78471172551755 l -25.743430454412646 -31.282576137731727 a61.51325439129968,61.51325439129968 0 0,0 0.8233888929824599,-0.665789888599173 l 25.201138162865686 31.721072123595032" fill="#30ff39" stroke="none" /><path d="M 86.93701828274178 83.55741782278169 l -16.283747645614532 -20.49661131059894 a47.177691124387366,47.177691124387366 0 0,0 0.6401955282473576,-0.4996827644102644 l 15.928519562207748 20.773872464232426" fill="#c2ff1e" stroke="none" /><path d="M 87.22198572758235 83.33499621200491 l -21.723492800552062 -28.331639180520973 a56.70142739598612,56.70142739598612 0 0,0 0.7796550118085901,-0.587219990950726 l 21.232591634985084 28.701375760977555" fill="#58ff2a" stroke="none" /><path d="M 87.51073957382395 83.11751280151077 l -37.467781278528136 -50.64746159546771 a84.0,84.0 0 0,0 1.1698187345848732,-0.8499230607333286 l 36.59041722758948 51.284903891017706" fill="#4dd2ff" stroke="none" /><line stroke="#e1ed5e" stroke-width="0.3" x1="56.762969772571076" x2="54.21961505331055" y1="26.818313649435495" y2="22.513508569990535" /><path d="M 56.25429882871897 25.957352633546506 a86.0,86.0 0 0,1 42.265352541879196,-11.944610805530505" fill="none" id="id36" stroke="none" /><text fill="#e1ed5e" style="font-size:6.75px; font-family:Arial;" text-anchor="middle"><textPath startOffset="22.20632615414155" xlink:href="#id36">December</textPath></text></svg>